<svg width="485" height="82" viewBox="0 0 485 82" fill="none" xmlns="http://www.w3.org/2000/svg">
<path d="M301.329 49.7834L295.263 68.2717H290.377L298.664 45.9693H301.773L301.329 49.7834ZM306.368 68.2717L300.287 49.7834L299.797 45.9693H302.937L311.27 68.2717H306.368ZM306.093 59.9696V63.5692H294.313V59.9696H306.093ZM319.042 55.3131V68.2717H314.631V51.6981H318.782L319.042 55.3131ZM324.036 51.5909L323.959 55.6807C323.745 55.65 323.484 55.6245 323.178 55.6041C322.882 55.5735 322.611 55.5581 322.366 55.5581C321.743 55.5581 321.202 55.6398 320.742 55.8032C320.293 55.9564 319.915 56.1862 319.609 56.4925C319.313 56.7989 319.088 57.1716 318.935 57.6107C318.792 58.0498 318.71 58.5502 318.69 59.1118L317.801 58.8361C317.801 57.7639 317.909 56.7784 318.123 55.8798C318.337 54.971 318.649 54.1796 319.057 53.5056C319.476 52.8316 319.987 52.3108 320.589 51.9432C321.192 51.5756 321.881 51.3918 322.657 51.3918C322.902 51.3918 323.152 51.4122 323.408 51.453C323.663 51.4837 323.872 51.5296 324.036 51.5909ZM332.099 55.3131V68.2717H327.687V51.6981H331.838L332.099 55.3131ZM337.092 51.5909L337.016 55.6807C336.801 55.65 336.541 55.6245 336.235 55.6041C335.938 55.5735 335.668 55.5581 335.423 55.5581C334.8 55.5581 334.259 55.6398 333.799 55.8032C333.35 55.9564 332.972 56.1862 332.666 56.4925C332.369 56.7989 332.145 57.1716 331.992 57.6107C331.849 58.0498 331.767 58.5502 331.746 59.1118L330.858 58.8361C330.858 57.7639 330.965 56.7784 331.18 55.8798C331.394 54.971 331.706 54.1796 332.114 53.5056C332.533 52.8316 333.043 52.3108 333.646 51.9432C334.248 51.5756 334.938 51.3918 335.714 51.3918C335.959 51.3918 336.209 51.4122 336.464 51.453C336.72 51.4837 336.929 51.5296 337.092 51.5909ZM339.58 60.1534V59.8317C339.58 58.6166 339.753 57.4984 340.101 56.4772C340.448 55.4458 340.953 54.5523 341.617 53.7966C342.281 53.041 343.098 52.4538 344.068 52.0351C345.038 51.6062 346.151 51.3918 347.407 51.3918C348.663 51.3918 349.781 51.6062 350.762 52.0351C351.742 52.4538 352.564 53.041 353.228 53.7966C353.902 54.5523 354.412 55.4458 354.76 56.4772C355.107 57.4984 355.28 58.6166 355.28 59.8317V60.1534C355.28 61.3584 355.107 62.4766 354.76 63.508C354.412 64.5291 353.902 65.4227 353.228 66.1885C352.564 66.9442 351.747 67.5314 350.777 67.9501C349.807 68.3687 348.694 68.5781 347.438 68.5781C346.182 68.5781 345.064 68.3687 344.083 67.9501C343.113 67.5314 342.291 66.9442 341.617 66.1885C340.953 65.4227 340.448 64.5291 340.101 63.508C339.753 62.4766 339.58 61.3584 339.58 60.1534ZM343.991 59.8317V60.1534C343.991 60.8478 344.053 61.4963 344.175 62.0987C344.298 62.7012 344.492 63.2322 344.757 63.6918C345.033 64.1411 345.39 64.4934 345.829 64.7487C346.269 65.004 346.805 65.1316 347.438 65.1316C348.05 65.1316 348.576 65.004 349.015 64.7487C349.455 64.4934 349.807 64.1411 350.072 63.6918C350.338 63.2322 350.532 62.7012 350.654 62.0987C350.787 61.4963 350.854 60.8478 350.854 60.1534V59.8317C350.854 59.1578 350.787 58.5246 350.654 57.9324C350.532 57.3299 350.333 56.7989 350.057 56.3393C349.792 55.8696 349.439 55.502 349 55.2365C348.561 54.971 348.03 54.8382 347.407 54.8382C346.784 54.8382 346.253 54.971 345.814 55.2365C345.385 55.502 345.033 55.8696 344.757 56.3393C344.492 56.7989 344.298 57.3299 344.175 57.9324C344.053 58.5246 343.991 59.1578 343.991 59.8317ZM364.232 66.403L368.628 51.6981H373.361L366.698 70.7685C366.555 71.1872 366.361 71.6365 366.116 72.1164C365.881 72.5964 365.559 73.0508 365.151 73.4797C364.753 73.9188 364.247 74.2762 363.635 74.5519C363.032 74.8276 362.292 74.9655 361.414 74.9655C360.995 74.9655 360.653 74.94 360.387 74.8889C360.122 74.8379 359.805 74.7664 359.438 74.6745V71.4425C359.55 71.4425 359.667 71.4425 359.79 71.4425C359.912 71.4527 360.03 71.4578 360.142 71.4578C360.724 71.4578 361.199 71.3914 361.567 71.2587C361.934 71.1259 362.23 70.9217 362.455 70.646C362.68 70.3804 362.858 70.0332 362.991 69.6044L364.232 66.403ZM362.394 51.6981L365.993 63.7071L366.621 68.379L363.619 68.7006L357.661 51.6981H362.394ZM375.742 60.1534V59.8317C375.742 58.6166 375.915 57.4984 376.262 56.4772C376.61 55.4458 377.115 54.5523 377.779 53.7966C378.443 53.041 379.26 52.4538 380.23 52.0351C381.2 51.6062 382.313 51.3918 383.569 51.3918C384.825 51.3918 385.943 51.6062 386.923 52.0351C387.904 52.4538 388.726 53.041 389.39 53.7966C390.064 54.5523 390.574 55.4458 390.921 56.4772C391.268 57.4984 391.442 58.6166 391.442 59.8317V60.1534C391.442 61.3584 391.268 62.4766 390.921 63.508C390.574 64.5291 390.064 65.4227 389.39 66.1885C388.726 66.9442 387.909 67.5314 386.939 67.9501C385.969 68.3687 384.856 68.5781 383.599 68.5781C382.343 68.5781 381.225 68.3687 380.245 67.9501C379.275 67.5314 378.453 66.9442 377.779 66.1885C377.115 65.4227 376.61 64.5291 376.262 63.508C375.915 62.4766 375.742 61.3584 375.742 60.1534ZM380.153 59.8317V60.1534C380.153 60.8478 380.214 61.4963 380.337 62.0987C380.459 62.7012 380.653 63.2322 380.919 63.6918C381.195 64.1411 381.552 64.4934 381.991 64.7487C382.43 65.004 382.966 65.1316 383.599 65.1316C384.212 65.1316 384.738 65.004 385.177 64.7487C385.616 64.4934 385.969 64.1411 386.234 63.6918C386.5 63.2322 386.694 62.7012 386.816 62.0987C386.949 61.4963 387.015 60.8478 387.015 60.1534V59.8317C387.015 59.1578 386.949 58.5246 386.816 57.9324C386.694 57.3299 386.495 56.7989 386.219 56.3393C385.953 55.8696 385.601 55.502 385.162 55.2365C384.723 54.971 384.192 54.8382 383.569 54.8382C382.946 54.8382 382.415 54.971 381.976 55.2365C381.547 55.502 381.195 55.8696 380.919 56.3393C380.653 56.7989 380.459 57.3299 380.337 57.9324C380.214 58.5246 380.153 59.1578 380.153 59.8317Z" fill="white"/>
<g clip-path="url(#clip0_108_301)">
<path d="M19.9662 0H0V19.9662H19.9662V0Z" fill="white"/>
<path d="M45.7943 0.000244141H25.8281V19.9664H45.7943V0.000244141Z" fill="#CFCFCF"/>
<path d="M19.9662 25.8289H0V45.795H19.9662V25.8289Z" fill="white"/>
<path d="M45.7943 25.8289H25.8281V45.795H45.7943V25.8289Z" fill="white"/>
<path d="M64.582 0.000156822H76.6398V45.795H64.582V0.000156822ZM104.728 26.7039C105.25 26.2273 105.509 25.4714 105.509 24.3663C105.509 23.1338 104.892 22.2012 103.664 21.5357C102.444 20.8786 101.077 20.5395 99.6912 20.5497C96.2444 20.5497 94.2273 21.9917 93.6726 24.8798H82.3914C82.3278 22.855 82.8576 20.8558 83.9155 19.1282C84.9402 17.5501 86.3424 16.2524 87.995 15.3527C89.7006 14.4027 91.5442 13.7249 93.459 13.3438C95.5616 12.9306 97.7005 12.731 99.8432 12.7481C105.094 12.7481 109.266 13.6122 112.361 15.3404C115.456 17.0686 117.005 20.321 117.008 25.0975V41.1855C117.008 43.0342 117.045 44.5584 117.139 45.7744H81.9764C81.2246 44.1226 80.8567 42.322 80.9 40.5076C80.9 34.6136 84.54 30.934 91.8198 29.4687C96.7497 28.7662 99.987 28.2362 101.577 27.9117C103.167 27.5871 104.214 27.201 104.728 26.7203V26.7039ZM105.509 33.3798C104.785 33.7906 103.368 34.2425 101.236 34.6903C99.1038 35.1381 97.6494 35.4586 96.8647 35.6475C95.9289 35.9109 95.0603 36.3718 94.3176 36.9992C93.8638 37.3618 93.5032 37.8276 93.2659 38.3579C93.0286 38.8881 92.9216 39.4674 92.9537 40.0475C92.9537 41.4648 93.4344 42.5124 94.3916 43.2067C95.4723 43.9279 96.7539 44.2875 98.052 44.2338C100.879 44.2338 102.829 43.3957 103.902 41.7196C104.974 40.0598 105.517 37.2785 105.509 33.3962V33.3798ZM134.842 45.7785V30.5738C134.772 28.5734 135.359 26.6053 136.514 24.9702C137.627 23.4583 139.241 22.7024 141.37 22.7024C143.399 22.7024 144.919 23.1995 145.917 24.1896C146.916 25.1797 147.405 27.353 147.405 30.7135V45.7991H159.458V27.0202C159.458 23.142 158.595 19.7965 156.87 16.9837C155.145 14.1709 151.584 12.7632 146.189 12.7604C143.841 12.7664 141.529 13.34 139.451 14.4325C137.42 15.4151 135.702 16.9426 134.488 18.8448V13.8286H122.78V45.795L134.842 45.7785ZM201.757 45.7785H167.658C164.919 41.9222 163.55 37.2169 163.55 31.6625C163.55 26.5929 164.899 22.2669 167.597 18.6845C170.294 15.1021 174.129 13.3123 179.1 13.315C183.594 13.315 187.092 14.805 189.592 17.7848L189.732 -0.0203857H201.79V45.795L201.757 45.7785ZM175.583 31.8104C175.583 34.7903 176.167 37.3087 177.333 39.3655C178.5 41.4224 180.398 42.4522 183.027 42.4549C185.698 42.4549 187.571 41.4498 188.647 39.4395C189.724 37.4387 190.262 35.0108 190.262 32.1761C190.262 29.1935 189.688 26.7449 188.541 24.8305C187.393 22.916 185.555 21.9574 183.027 21.9547C180.456 21.9547 178.57 22.9133 177.37 24.8305C176.171 26.7477 175.575 29.0825 175.583 31.8351V31.8104Z" fill="white"/>
<path d="M227.766 63.7694H239.47C238.952 68.6227 237.004 72.4091 233.624 75.1288C230.244 77.8484 226.022 79.2179 220.958 79.237C215.385 79.237 210.777 77.491 207.134 73.999C203.491 70.507 201.67 65.9783 201.67 60.413C201.67 54.5135 203.419 49.7 206.916 45.9724C206.974 45.9108 207.031 45.8574 207.089 45.804H235.267C237.51 48.1457 238.803 51.1831 239.146 54.9161H227.421C227.432 54.1939 227.282 53.4782 226.981 52.8214C226.681 52.1647 226.237 51.5834 225.683 51.1201C224.537 50.1116 223.055 49.568 221.529 49.5959C218.501 49.5959 216.447 50.6189 215.367 52.6401C214.286 54.6614 213.724 57.2537 213.724 60.413C213.659 62.7984 214.276 65.1528 215.502 67.1998C216.682 69.0855 218.485 70.0222 220.892 70.0222C222.869 70.0222 224.446 69.4758 225.605 68.3789C226.763 67.282 227.482 65.7373 227.766 63.7694ZM281.444 59.8378C281.444 65.4086 279.623 70.0345 275.98 73.7155C272.338 77.3965 267.681 79.237 262.012 79.237C256.343 79.237 251.698 77.4075 248.077 73.7484C244.456 70.0893 242.651 65.4524 242.662 59.8378C242.662 54.267 244.471 49.6302 248.089 45.9272C248.131 45.8804 248.177 45.8364 248.225 45.7958H275.82L275.956 45.9272C279.615 49.6329 281.444 54.2697 281.444 59.8378ZM269.395 59.8378C269.452 57.336 268.853 54.8629 267.657 52.6648C266.498 50.6107 264.613 49.5918 262.016 49.5918C259.42 49.5918 257.604 50.6107 256.445 52.636C255.238 54.8431 254.637 57.331 254.703 59.846C254.703 62.6698 255.27 65.0731 256.404 67.056C257.538 69.039 259.406 70.0277 262.008 70.0222C264.563 70.0222 266.431 69.0102 267.612 66.9862C268.83 64.8008 269.445 62.331 269.395 59.8296V59.8378Z" fill="#CFCFCF"/>
</g>
<defs>
<clipPath id="clip0_108_301">
<rect width="370.52" height="79.2361" fill="white"/>
</clipPath>
</defs>
</svg>
