<svg width="474" height="231" viewBox="0 0 474 231" fill="none" xmlns="http://www.w3.org/2000/svg">
<path d="M5.74 56V7H36.82L37.66 11.48C37.66 11.48 37.1 11.41 37.03 11.27C36.12 9.73 29.68 8.12 19.39 8.12H12.11V54.88H21.28C34.02 54.88 39.2 52.15 39.69 51.03C39.76 50.82 40.25 50.82 40.25 50.82L38.36 56H5.74ZM12.95 33.46C13.79 29.96 15.4 28.91 17.43 28.91C20.79 28.91 25.27 32.13 28.77 32.13C30.1 32.13 31.29 31.64 32.2 30.45C31.22 32.62 29.82 33.39 28.28 33.39C24.85 33.39 20.51 30.03 17.15 30.03C15.4 30.03 13.93 30.87 12.95 33.46ZM75.3315 49.77V42.77C75.2615 35.49 76.1015 21.49 64.9015 21.49C58.8115 21.49 56.6415 23.38 55.6615 24.5C57.6915 21.49 62.0315 20.3 65.5315 20.3C81.9115 20.3 81.3515 33.25 81.3515 43.33V49.56C81.3515 53.41 82.5415 54.81 84.1515 54.81C85.4815 54.81 87.0915 53.83 88.3515 52.57C86.8815 55.09 84.0815 56.42 81.4915 56.42C78.2715 56.42 75.3315 54.39 75.3315 49.77ZM49.0115 56V21H55.0315V56H49.0115ZM127.696 20.44C135.186 20.44 139.806 24.5 139.806 29.33C139.806 34.65 134.206 40.95 120.836 43.89C130.426 40.04 133.926 34.44 133.926 29.82C133.926 25.27 130.496 21.7 126.156 21.7C119.646 21.7 116.776 27.23 116.776 33.74C116.776 43.19 122.796 54.81 132.246 54.81C140.856 54.81 145.896 45.78 146.246 43.12C145.546 49.84 138.406 57.05 129.236 57.05C116.776 57.05 110.826 48.09 110.826 38.64C110.826 26.18 119.366 20.44 127.696 20.44ZM151.756 56V3.5H157.776V56H151.756ZM203.218 21.28C196.568 21.28 193.558 28.07 193.558 35.63C193.558 44.94 198.178 55.3 206.228 55.3C210.638 55.3 213.578 53.69 215.188 50.75C213.578 54.81 209.728 57.05 203.778 57.05C191.948 57.05 186.978 47.81 186.978 38.64C186.978 29.4 192.018 20.23 203.778 20.23C209.798 20.23 213.718 22.33 216.098 25.41V3.5H222.118V56H216.098V36.33C214.768 28.56 210.218 21.28 203.218 21.28ZM234.003 17.71C235.753 16.8 236.453 15.61 236.453 14.7C236.453 13.23 234.773 12.18 232.743 12.74C232.463 9.73 234.493 8.33 236.523 8.33C238.763 8.33 240.163 9.87 240.163 11.76C240.163 13.93 238.343 16.52 234.003 17.71ZM233.513 21H239.533V56H233.513V21ZM248.212 45.57C247.862 52.5 255.002 55.65 261.862 55.65C268.092 55.65 274.182 52.99 274.182 48.37C274.182 39.2 249.472 43.4 249.472 30.17C249.472 23.38 255.842 19.74 262.422 19.74C268.582 19.74 274.812 22.82 276.422 29.54C274.812 23.87 268.932 21.21 263.542 21.21C258.292 21.21 253.462 23.73 253.462 28.35C253.462 37.59 278.942 32.9 278.942 46.27C278.942 53.76 271.452 57.26 263.892 57.26C255.772 57.26 247.442 53.2 248.212 45.57ZM289.412 10.15C293.402 10.15 296.202 12.67 296.202 15.19C296.202 17.78 293.332 20.37 285.842 20.51C290.882 20.23 293.472 17.29 293.472 14.56C293.472 12.6 292.142 10.78 289.412 10.15ZM288.222 48.02V22.12H282.762V21H306.072V22.12H294.172V47.81C294.172 52.64 296.272 54.53 298.932 54.53C302.642 54.53 307.332 50.96 309.292 46.55C306.492 53.76 301.382 56.35 296.972 56.35C292.142 56.35 288.222 53.13 288.222 48.02ZM321.856 28.56C323.956 23.31 328.786 19.25 333.336 19.25C336.696 19.25 338.306 21.07 338.306 22.89C338.306 24.71 336.766 26.46 333.756 26.46C333.826 23.31 332.426 21.91 330.466 21.91C327.876 21.91 324.376 24.29 321.856 28.56ZM315.066 56V21H321.086V56H315.066ZM345.498 17.71C347.248 16.8 347.948 15.61 347.948 14.7C347.948 13.23 346.268 12.18 344.238 12.74C343.958 9.73 345.988 8.33 348.018 8.33C350.258 8.33 351.658 9.87 351.658 11.76C351.658 13.93 349.838 16.52 345.498 17.71ZM345.008 21H351.028V56H345.008V21ZM364.676 10.15C368.666 10.15 371.466 12.67 371.466 15.19C371.466 17.78 368.596 20.37 361.106 20.51C366.146 20.23 368.736 17.29 368.736 14.56C368.736 12.6 367.406 10.78 364.676 10.15ZM363.486 48.02V22.12H358.026V21H381.336V22.12H369.436V47.81C369.436 52.64 371.536 54.53 374.196 54.53C377.906 54.53 382.596 50.96 384.556 46.55C381.756 53.76 376.646 56.35 372.236 56.35C367.406 56.35 363.486 53.13 363.486 48.02ZM403.49 21.7C396.98 21.7 394.11 27.3 394.11 33.95C394.11 43.61 400.13 55.51 409.65 55.51C416.16 55.51 418.96 49.98 418.96 43.33C418.96 33.67 412.94 21.7 403.49 21.7ZM388.16 38.64C388.16 29.12 394.25 20.23 406.57 20.23C419.03 20.23 424.91 29.19 424.91 38.64C424.91 48.16 418.96 57.05 406.57 57.05C394.11 57.05 388.16 48.09 388.16 38.64ZM19.81 98.28C13.16 98.28 10.15 105.07 10.15 112.63C10.15 121.94 14.77 132.3 22.82 132.3C27.23 132.3 30.17 130.69 31.78 127.75C30.17 131.81 26.32 134.05 20.37 134.05C8.54 134.05 3.57 124.81 3.57 115.64C3.57 106.4 8.61 97.23 20.37 97.23C26.39 97.23 30.31 99.33 32.69 102.41V80.5H38.71V133H32.69V113.33C31.36 105.56 26.81 98.28 19.81 98.28ZM63.3013 97.44C70.7913 97.44 75.4113 101.5 75.4113 106.33C75.4113 111.65 69.8113 117.95 56.4413 120.89C66.0313 117.04 69.5313 111.44 69.5313 106.82C69.5313 102.27 66.1013 98.7 61.7613 98.7C55.2513 98.7 52.3813 104.23 52.3813 110.74C52.3813 120.19 58.4013 131.81 67.8513 131.81C76.4613 131.81 81.5013 122.78 81.8513 120.12C81.1513 126.84 74.0113 134.05 64.8413 134.05C52.3813 134.05 46.4313 125.09 46.4313 115.64C46.4313 103.18 54.9713 97.44 63.3013 97.44ZM130.002 84L154.852 133H147.782L144.982 127.54C140.922 120.68 131.682 114.03 123.422 114.03C119.572 114.03 115.932 115.57 113.202 119.21C115.582 114.87 119.362 113.19 123.632 113.19C130.002 113.19 137.422 117.18 142.392 122.43L126.432 91L111.172 121.17C109.562 124.39 109.002 126.98 109.002 128.87C109.002 130.97 109.702 132.23 110.332 132.44C110.612 132.51 110.612 133 110.612 133H103.962L128.812 84H130.002ZM169.757 105.56C171.857 100.31 176.687 96.25 181.237 96.25C184.597 96.25 186.207 98.07 186.207 99.89C186.207 101.71 184.667 103.46 181.657 103.46C181.727 100.31 180.327 98.91 178.367 98.91C175.777 98.91 172.277 101.29 169.757 105.56ZM162.967 133V98H168.987V133H162.967ZM212.82 126.77V118.3C210.23 114.59 206.24 112.63 202.32 112.63C194.9 112.63 191.61 117.6 191.61 122.43C191.61 126.98 194.55 131.32 199.66 131.32C202.74 131.32 206.8 129.64 211.98 125.37C207.36 130.83 201.34 133.77 196.3 133.77C189.65 133.77 185.73 128.59 185.73 123.27C185.73 117.6 190.21 111.72 200.43 111.72C205.12 111.72 209.88 113.47 212.82 117.39V115.71C212.82 106.96 212.89 98.56 203.02 98.56C194.62 98.56 190.7 104.3 189.86 107.38C191.33 101.43 196.93 97.23 203.23 97.23C216.67 97.23 218.77 105.84 218.77 115.71V126.56C218.77 130.41 219.96 131.81 221.57 131.81C222.9 131.81 224.51 130.83 225.77 129.57C224.3 132.09 221.57 133.42 218.98 133.42C215.76 133.42 212.82 131.39 212.82 126.77ZM189.86 107.38C189.86 107.52 189.79 107.66 189.79 107.8C189.79 107.66 189.86 107.52 189.86 107.38ZM257.509 126.77V119.77C257.439 112.49 258.279 98.49 247.079 98.49C240.989 98.49 238.819 100.38 237.839 101.5C239.869 98.49 244.209 97.3 247.709 97.3C264.089 97.3 263.529 110.25 263.529 120.33V126.56C263.529 130.41 264.719 131.81 266.329 131.81C267.659 131.81 269.269 130.83 270.529 129.57C269.059 132.09 266.259 133.42 263.669 133.42C260.449 133.42 257.509 131.39 257.509 126.77ZM231.189 133V98H237.209V133H231.189ZM275.003 102.97L275.983 98H302.793L280.043 131.88H293.623C295.723 131.88 300.763 131.25 303.003 127.82L301.603 133H271.853L294.673 99.12H281.933C278.433 99.12 275.913 101.71 275.003 102.97ZM335.251 126.77V118.3C332.661 114.59 328.671 112.63 324.751 112.63C317.331 112.63 314.041 117.6 314.041 122.43C314.041 126.98 316.981 131.32 322.091 131.32C325.171 131.32 329.231 129.64 334.411 125.37C329.791 130.83 323.771 133.77 318.731 133.77C312.081 133.77 308.161 128.59 308.161 123.27C308.161 117.6 312.641 111.72 322.861 111.72C327.551 111.72 332.311 113.47 335.251 117.39V115.71C335.251 106.96 335.321 98.56 325.451 98.56C317.051 98.56 313.131 104.3 312.291 107.38C313.761 101.43 319.361 97.23 325.661 97.23C339.101 97.23 341.201 105.84 341.201 115.71V126.56C341.201 130.41 342.391 131.81 344.001 131.81C345.331 131.81 346.941 130.83 348.201 129.57C346.731 132.09 344.001 133.42 341.411 133.42C338.191 133.42 335.251 131.39 335.251 126.77ZM312.291 107.38C312.291 107.52 312.221 107.66 312.221 107.8C312.221 107.66 312.291 107.52 312.291 107.38ZM379.941 126.77V119.77C379.871 112.49 380.711 98.49 369.511 98.49C363.421 98.49 361.251 100.38 360.271 101.5C362.301 98.49 366.641 97.3 370.141 97.3C386.521 97.3 385.961 110.25 385.961 120.33V126.56C385.961 130.41 387.151 131.81 388.761 131.81C390.091 131.81 391.701 130.83 392.961 129.57C391.491 132.09 388.691 133.42 386.101 133.42C382.881 133.42 379.941 131.39 379.941 126.77ZM353.621 133V98H359.641V133H353.621ZM421.794 126.77V118.3C419.204 114.59 415.214 112.63 411.294 112.63C403.874 112.63 400.584 117.6 400.584 122.43C400.584 126.98 403.524 131.32 408.634 131.32C411.714 131.32 415.774 129.64 420.954 125.37C416.334 130.83 410.314 133.77 405.274 133.77C398.624 133.77 394.704 128.59 394.704 123.27C394.704 117.6 399.184 111.72 409.404 111.72C414.094 111.72 418.854 113.47 421.794 117.39V115.71C421.794 106.96 421.864 98.56 411.994 98.56C403.594 98.56 399.674 104.3 398.834 107.38C400.304 101.43 405.904 97.23 412.204 97.23C425.644 97.23 427.744 105.84 427.744 115.71V126.56C427.744 130.41 428.934 131.81 430.544 131.81C431.874 131.81 433.484 130.83 434.744 129.57C433.274 132.09 430.544 133.42 427.954 133.42C424.734 133.42 421.794 131.39 421.794 126.77ZM398.834 107.38C398.834 107.52 398.764 107.66 398.764 107.8C398.764 107.66 398.834 107.52 398.834 107.38ZM436.804 129.92C436.804 127.89 438.414 126.35 440.444 126.35C442.404 126.35 443.944 127.89 443.944 129.92C443.944 133.84 439.394 136.78 436.034 136.78C438.064 135.94 439.254 134.82 439.884 133.63C438.134 133.35 436.804 131.81 436.804 129.92ZM20.44 174.44C27.93 174.44 32.55 178.5 32.55 183.33C32.55 188.65 26.95 194.95 13.58 197.89C23.17 194.04 26.67 188.44 26.67 183.82C26.67 179.27 23.24 175.7 18.9 175.7C12.39 175.7 9.52 181.23 9.52 187.74C9.52 197.19 15.54 208.81 24.99 208.81C33.6 208.81 38.64 199.78 38.99 197.12C38.29 203.84 31.15 211.05 21.98 211.05C9.52 211.05 3.57 202.09 3.57 192.64C3.57 180.18 12.11 174.44 20.44 174.44ZM70.8198 203.77V196.77C70.7498 189.49 71.5898 175.49 60.3898 175.49C54.2998 175.49 52.1298 177.38 51.1498 178.5C53.1798 175.49 57.5198 174.3 61.0198 174.3C77.3998 174.3 76.8398 187.25 76.8398 197.33V203.56C76.8398 207.41 78.0298 208.81 79.6398 208.81C80.9698 208.81 82.5798 207.83 83.8398 206.57C82.3698 209.09 79.5698 210.42 76.9798 210.42C73.7598 210.42 70.8198 208.39 70.8198 203.77ZM44.4998 210V175H50.5198V210H44.4998ZM129.904 210L105.054 161H112.194L133.474 203L147.684 174.93C149.854 170.59 150.554 167.37 150.554 165.13C150.554 162.96 149.854 161.77 149.294 161.56C149.014 161.49 149.014 161 149.014 161H155.944L131.094 210H129.904ZM182.673 203.77V195.3C180.083 191.59 176.093 189.63 172.173 189.63C164.753 189.63 161.463 194.6 161.463 199.43C161.463 203.98 164.403 208.32 169.513 208.32C172.593 208.32 176.653 206.64 181.833 202.37C177.213 207.83 171.193 210.77 166.153 210.77C159.503 210.77 155.583 205.59 155.583 200.27C155.583 194.6 160.063 188.72 170.283 188.72C174.973 188.72 179.733 190.47 182.673 194.39V192.71C182.673 183.96 182.743 175.56 172.873 175.56C164.473 175.56 160.553 181.3 159.713 184.38C161.183 178.43 166.783 174.23 173.083 174.23C186.523 174.23 188.623 182.84 188.623 192.71V203.56C188.623 207.41 189.813 208.81 191.423 208.81C192.753 208.81 194.363 207.83 195.623 206.57C194.153 209.09 191.423 210.42 188.833 210.42C185.613 210.42 182.673 208.39 182.673 203.77ZM159.713 184.38C159.713 184.52 159.643 184.66 159.643 184.8C159.643 184.66 159.713 184.52 159.713 184.38ZM201.043 210V157.5H207.063V210H201.043ZM218.474 210V157.5H224.494V210H218.474ZM260.056 203.77V195.3C257.466 191.59 253.476 189.63 249.556 189.63C242.136 189.63 238.846 194.6 238.846 199.43C238.846 203.98 241.786 208.32 246.896 208.32C249.976 208.32 254.036 206.64 259.216 202.37C254.596 207.83 248.576 210.77 243.536 210.77C236.886 210.77 232.966 205.59 232.966 200.27C232.966 194.6 237.446 188.72 247.666 188.72C252.356 188.72 257.116 190.47 260.056 194.39V192.71C260.056 183.96 260.126 175.56 250.256 175.56C241.856 175.56 237.936 181.3 237.096 184.38C238.566 178.43 244.166 174.23 250.466 174.23C263.906 174.23 266.006 182.84 266.006 192.71V203.56C266.006 207.41 267.196 208.81 268.806 208.81C270.136 208.81 271.746 207.83 273.006 206.57C271.536 209.09 268.806 210.42 266.216 210.42C262.996 210.42 260.056 208.39 260.056 203.77ZM237.096 184.38C237.096 184.52 237.026 184.66 237.026 184.8C237.026 184.66 237.096 184.52 237.096 184.38ZM292.496 175.28C285.846 175.28 282.836 182.07 282.836 189.63C282.836 198.94 287.456 209.3 295.506 209.3C299.916 209.3 302.856 207.69 304.466 204.75C302.856 208.81 299.006 211.05 293.056 211.05C281.226 211.05 276.256 201.81 276.256 192.64C276.256 183.4 281.296 174.23 293.056 174.23C299.076 174.23 302.996 176.33 305.376 179.41V157.5H311.396V210H305.376V190.33C304.046 182.56 299.496 175.28 292.496 175.28ZM335.951 175.7C329.441 175.7 326.571 181.3 326.571 187.95C326.571 197.61 332.591 209.51 342.111 209.51C348.621 209.51 351.421 203.98 351.421 197.33C351.421 187.67 345.401 175.7 335.951 175.7ZM320.621 192.64C320.621 183.12 326.711 174.23 339.031 174.23C351.491 174.23 357.371 183.19 357.371 192.64C357.371 202.16 351.421 211.05 339.031 211.05C326.571 211.05 320.621 202.09 320.621 192.64ZM366.678 210V157.5H372.698V210H366.678ZM384.599 171.71C386.349 170.8 387.049 169.61 387.049 168.7C387.049 167.23 385.369 166.18 383.339 166.74C383.059 163.73 385.089 162.33 387.119 162.33C389.359 162.33 390.759 163.87 390.759 165.76C390.759 167.93 388.939 170.52 384.599 171.71ZM384.109 175H390.129V210H384.109V175ZM415.748 175.28C409.098 175.28 406.088 182.07 406.088 189.63C406.088 198.94 410.708 209.3 418.758 209.3C423.168 209.3 426.108 207.69 427.718 204.75C426.108 208.81 422.258 211.05 416.308 211.05C404.478 211.05 399.508 201.81 399.508 192.64C399.508 183.4 404.548 174.23 416.308 174.23C422.328 174.23 426.248 176.33 428.628 179.41V157.5H434.648V210H428.628V190.33C427.298 182.56 422.748 175.28 415.748 175.28Z" fill="#505050"/>
</svg>
