<svg width="445" height="228" viewBox="0 0 445 228" fill="none" xmlns="http://www.w3.org/2000/svg">
<path d="M5.74 56V7H36.82L37.66 11.48C37.66 11.48 37.1 11.41 37.03 11.27C36.12 9.73 29.68 8.12 19.39 8.12H12.11V54.88H21.28C34.02 54.88 39.2 52.15 39.69 51.03C39.76 50.82 40.25 50.82 40.25 50.82L38.36 56H5.74ZM12.95 33.46C13.79 29.96 15.4 28.91 17.43 28.91C20.79 28.91 25.27 32.13 28.77 32.13C30.1 32.13 31.29 31.64 32.2 30.45C31.22 32.62 29.82 33.39 28.28 33.39C24.85 33.39 20.51 30.03 17.15 30.03C15.4 30.03 13.93 30.87 12.95 33.46ZM75.3315 49.77V42.77C75.2615 35.49 76.1015 21.49 64.9015 21.49C58.8115 21.49 56.6415 23.38 55.6615 24.5C57.6915 21.49 62.0315 20.3 65.5315 20.3C81.9115 20.3 81.3515 33.25 81.3515 43.33V49.56C81.3515 53.41 82.5415 54.81 84.1515 54.81C85.4815 54.81 87.0915 53.83 88.3515 52.57C86.8815 55.09 84.0815 56.42 81.4915 56.42C78.2715 56.42 75.3315 54.39 75.3315 49.77ZM49.0115 56V21H55.0315V56H49.0115ZM138.336 49.77V21H144.356V49.56C144.356 53.41 145.616 54.81 147.156 54.81C148.486 54.81 150.096 53.83 151.356 52.57C149.886 55.09 147.086 56.42 144.496 56.42C141.276 56.42 138.336 54.39 138.336 49.77ZM137.706 50.33C136.796 54.46 132.106 56.7 128.186 56.7C112.996 56.7 112.436 45.5 112.436 35.84C112.436 35.07 112.436 34.37 112.436 33.67V21H118.386V34.23C118.386 35.14 118.386 36.05 118.386 37.1C118.386 44.52 118.946 54.88 128.816 54.88C135.046 54.88 136.936 52.01 137.706 50.33ZM183.066 49.77V42.77C182.996 35.49 183.836 21.49 172.636 21.49C166.546 21.49 164.376 23.38 163.396 24.5C165.426 21.49 169.766 20.3 173.266 20.3C189.646 20.3 189.086 33.25 189.086 43.33V49.56C189.086 53.41 190.276 54.81 191.886 54.81C193.216 54.81 194.826 53.83 196.086 52.57C194.616 55.09 191.816 56.42 189.226 56.42C186.006 56.42 183.066 54.39 183.066 49.77ZM156.746 56V21H162.766V56H156.746ZM224.919 49.77V41.3C222.329 37.59 218.339 35.63 214.419 35.63C206.999 35.63 203.709 40.6 203.709 45.43C203.709 49.98 206.649 54.32 211.759 54.32C214.839 54.32 218.899 52.64 224.079 48.37C219.459 53.83 213.439 56.77 208.399 56.77C201.749 56.77 197.829 51.59 197.829 46.27C197.829 40.6 202.309 34.72 212.529 34.72C217.219 34.72 221.979 36.47 224.919 40.39V38.71C224.919 29.96 224.989 21.56 215.119 21.56C206.719 21.56 202.799 27.3 201.959 30.38C203.429 24.43 209.029 20.23 215.329 20.23C228.769 20.23 230.869 28.84 230.869 38.71V49.56C230.869 53.41 232.059 54.81 233.669 54.81C234.999 54.81 236.609 53.83 237.869 52.57C236.399 55.09 233.669 56.42 231.079 56.42C227.859 56.42 224.919 54.39 224.919 49.77ZM201.959 30.38C201.959 30.52 201.889 30.66 201.889 30.8C201.889 30.66 201.959 30.52 201.959 30.38ZM31.08 126.77V98H37.1V126.56C37.1 130.41 38.36 131.81 39.9 131.81C41.23 131.81 42.84 130.83 44.1 129.57C42.63 132.09 39.83 133.42 37.24 133.42C34.02 133.42 31.08 131.39 31.08 126.77ZM30.45 127.33C29.54 131.46 24.85 133.7 20.93 133.7C5.74 133.7 5.18 122.5 5.18 112.84C5.18 112.07 5.18 111.37 5.18 110.67V98H11.13V111.23C11.13 112.14 11.13 113.05 11.13 114.1C11.13 121.52 11.69 131.88 21.56 131.88C27.79 131.88 29.68 129.01 30.45 127.33ZM56.28 105.56C58.38 100.31 63.21 96.25 67.76 96.25C71.12 96.25 72.73 98.07 72.73 99.89C72.73 101.71 71.19 103.46 68.18 103.46C68.25 100.31 66.85 98.91 64.89 98.91C62.3 98.91 58.8 101.29 56.28 105.56ZM49.49 133V98H55.51V133H49.49ZM79.4314 133V80.5H85.4514L85.5914 119.21C86.5714 126.91 91.0514 133 98.4714 133C105.121 133 108.131 126.21 108.131 118.65C108.131 109.34 103.511 98.91 95.4614 98.91C91.8914 98.91 88.1114 101.92 86.4314 104.58C88.3214 100.24 93.0114 97.23 97.8414 97.23C109.741 97.23 114.711 106.47 114.711 115.64C114.711 124.88 109.671 134.05 97.8414 134.05C90.9114 134.05 86.7814 131.46 84.5414 127.75C82.0914 127.47 80.2714 130.13 79.4314 133ZM148.083 126.77V118.3C145.493 114.59 141.503 112.63 137.583 112.63C130.163 112.63 126.873 117.6 126.873 122.43C126.873 126.98 129.813 131.32 134.923 131.32C138.003 131.32 142.063 129.64 147.243 125.37C142.623 130.83 136.603 133.77 131.563 133.77C124.913 133.77 120.993 128.59 120.993 123.27C120.993 117.6 125.473 111.72 135.693 111.72C140.383 111.72 145.143 113.47 148.083 117.39V115.71C148.083 106.96 148.153 98.56 138.283 98.56C129.883 98.56 125.963 104.3 125.123 107.38C126.593 101.43 132.193 97.23 138.493 97.23C151.933 97.23 154.033 105.84 154.033 115.71V126.56C154.033 130.41 155.223 131.81 156.833 131.81C158.163 131.81 159.773 130.83 161.033 129.57C159.563 132.09 156.833 133.42 154.243 133.42C151.023 133.42 148.083 131.39 148.083 126.77ZM125.123 107.38C125.123 107.52 125.053 107.66 125.053 107.8C125.053 107.66 125.123 107.52 125.123 107.38ZM192.773 126.77V119.77C192.703 112.49 193.543 98.49 182.343 98.49C176.253 98.49 174.083 100.38 173.103 101.5C175.133 98.49 179.473 97.3 182.973 97.3C199.353 97.3 198.793 110.25 198.793 120.33V126.56C198.793 130.41 199.983 131.81 201.593 131.81C202.923 131.81 204.533 130.83 205.793 129.57C204.323 132.09 201.523 133.42 198.933 133.42C195.713 133.42 192.773 131.39 192.773 126.77ZM166.453 133V98H172.473V133H166.453ZM210.966 94.71C212.716 93.8 213.416 92.61 213.416 91.7C213.416 90.23 211.736 89.18 209.706 89.74C209.426 86.73 211.456 85.33 213.486 85.33C215.726 85.33 217.126 86.87 217.126 88.76C217.126 90.93 215.306 93.52 210.966 94.71ZM210.476 98H216.496V133H210.476V98ZM227.835 102.97L228.815 98H255.625L232.875 131.88H246.455C248.555 131.88 253.595 131.25 255.835 127.82L254.435 133H224.685L247.505 99.12H234.765C231.265 99.12 228.745 101.71 227.835 102.97ZM288.083 126.77V118.3C285.493 114.59 281.503 112.63 277.583 112.63C270.163 112.63 266.873 117.6 266.873 122.43C266.873 126.98 269.813 131.32 274.923 131.32C278.003 131.32 282.063 129.64 287.243 125.37C282.623 130.83 276.603 133.77 271.563 133.77C264.913 133.77 260.993 128.59 260.993 123.27C260.993 117.6 265.473 111.72 275.693 111.72C280.383 111.72 285.143 113.47 288.083 117.39V115.71C288.083 106.96 288.153 98.56 278.283 98.56C269.883 98.56 265.963 104.3 265.123 107.38C266.593 101.43 272.193 97.23 278.493 97.23C291.933 97.23 294.033 105.84 294.033 115.71V126.56C294.033 130.41 295.223 131.81 296.833 131.81C298.163 131.81 299.773 130.83 301.033 129.57C299.563 132.09 296.833 133.42 294.243 133.42C291.023 133.42 288.083 131.39 288.083 126.77ZM265.123 107.38C265.123 107.52 265.053 107.66 265.053 107.8C265.053 107.66 265.123 107.52 265.123 107.38ZM304.283 115.64C304.283 104.09 312.963 97.3 321.643 97.3C329.623 97.3 333.053 101.01 333.053 104.02C333.053 106.33 331.093 108.22 327.733 107.94C328.153 107.38 328.363 106.54 328.363 105.56C328.363 102.69 326.263 98.7 319.613 98.7C312.963 98.7 309.953 104.44 309.953 111.09C309.953 120.47 315.973 131.81 326.333 131.81C333.543 131.81 339.353 124.11 339.703 120.05C339.423 126.84 331.653 134.05 322.693 134.05C310.233 134.05 304.283 125.09 304.283 115.64ZM345.703 94.71C347.453 93.8 348.153 92.61 348.153 91.7C348.153 90.23 346.473 89.18 344.443 89.74C344.163 86.73 346.193 85.33 348.223 85.33C350.463 85.33 351.863 86.87 351.863 88.76C351.863 90.93 350.043 93.52 345.703 94.71ZM345.213 98H351.233V133H345.213V98ZM395.611 114.17C395.611 117.297 395.191 120.073 394.351 122.5C393.558 124.88 392.391 126.91 390.851 128.59C389.358 130.27 387.514 131.553 385.321 132.44C383.174 133.28 380.771 133.7 378.111 133.7C375.638 133.7 373.351 133.28 371.251 132.44C369.151 131.553 367.331 130.27 365.791 128.59C364.251 126.91 363.038 124.88 362.151 122.5C361.311 120.073 360.891 117.297 360.891 114.17C360.891 110.017 361.591 106.517 362.991 103.67C364.391 100.777 366.398 98.5833 369.011 97.09C371.624 95.55 374.728 94.78 378.321 94.78C381.728 94.78 384.714 95.55 387.281 97.09C389.894 98.5833 391.924 100.777 393.371 103.67C394.864 106.517 395.611 110.017 395.611 114.17ZM367.261 114.17C367.261 117.11 367.634 119.677 368.381 121.87C369.174 124.017 370.388 125.673 372.021 126.84C373.654 128.007 375.731 128.59 378.251 128.59C380.771 128.59 382.848 128.007 384.481 126.84C386.114 125.673 387.304 124.017 388.051 121.87C388.844 119.677 389.241 117.11 389.241 114.17C389.241 111.183 388.844 108.64 388.051 106.54C387.258 104.44 386.044 102.83 384.411 101.71C382.824 100.543 380.748 99.96 378.181 99.96C374.354 99.96 371.578 101.22 369.851 103.74C368.124 106.26 367.261 109.737 367.261 114.17ZM388.611 80.08C388.191 80.7333 387.584 81.5267 386.791 82.46C385.998 83.3933 385.111 84.3733 384.131 85.4C383.198 86.38 382.241 87.3367 381.261 88.27C380.328 89.1567 379.441 89.9267 378.601 90.58H374.541V89.74C375.241 88.8533 375.988 87.8033 376.781 86.59C377.621 85.3767 378.438 84.14 379.231 82.88C380.024 81.5733 380.678 80.4067 381.191 79.38H388.611V80.08ZM431.484 126.77V119.77C431.414 112.49 432.254 98.49 421.054 98.49C414.964 98.49 412.794 100.38 411.814 101.5C413.844 98.49 418.184 97.3 421.684 97.3C438.064 97.3 437.504 110.25 437.504 120.33V126.56C437.504 130.41 438.694 131.81 440.304 131.81C441.634 131.81 443.244 130.83 444.504 129.57C443.034 132.09 440.234 133.42 437.644 133.42C434.424 133.42 431.484 131.39 431.484 126.77ZM405.164 133V98H411.184V133H405.164ZM24.15 174.23C36.05 174.23 41.02 183.47 41.02 192.64C41.02 201.88 35.98 211.05 24.15 211.05C17.99 211.05 14.07 209.02 11.76 206.01V227.5H5.74V175H11.76V194.18C12.11 202.79 16.73 210 24.78 210C31.43 210 34.44 203.21 34.44 195.65C34.44 186.34 29.82 175.91 21.77 175.91C18.2 175.91 14.42 178.92 12.74 181.58C14.63 177.24 19.32 174.23 24.15 174.23ZM57.032 182.56C59.132 177.31 63.962 173.25 68.512 173.25C71.872 173.25 73.482 175.07 73.482 176.89C73.482 178.71 71.942 180.46 68.932 180.46C69.002 177.31 67.602 175.91 65.642 175.91C63.052 175.91 59.552 178.29 57.032 182.56ZM50.242 210V175H56.262V210H50.242ZM80.6734 171.71C82.4234 170.8 83.1234 169.61 83.1234 168.7C83.1234 167.23 81.4434 166.18 79.4134 166.74C79.1334 163.73 81.1634 162.33 83.1934 162.33C85.4334 162.33 86.8334 163.87 86.8334 165.76C86.8334 167.93 85.0134 170.52 80.6734 171.71ZM80.1834 175H86.2034V210H80.1834V175ZM108.081 210L92.7511 175H99.2611L111.371 202.58L119.771 184.38C120.611 182.56 120.891 180.95 120.891 179.55C120.891 176.75 119.771 175 119.771 175H125.371L109.271 210H108.081ZM153.347 203.77V195.3C150.757 191.59 146.767 189.63 142.847 189.63C135.427 189.63 132.137 194.6 132.137 199.43C132.137 203.98 135.077 208.32 140.187 208.32C143.267 208.32 147.327 206.64 152.507 202.37C147.887 207.83 141.867 210.77 136.827 210.77C130.177 210.77 126.257 205.59 126.257 200.27C126.257 194.6 130.737 188.72 140.957 188.72C145.647 188.72 150.407 190.47 153.347 194.39V192.71C153.347 183.96 153.417 175.56 143.547 175.56C135.147 175.56 131.227 181.3 130.387 184.38C131.857 178.43 137.457 174.23 143.757 174.23C157.197 174.23 159.297 182.84 159.297 192.71V203.56C159.297 207.41 160.487 208.81 162.097 208.81C163.427 208.81 165.037 207.83 166.297 206.57C164.827 209.09 162.097 210.42 159.507 210.42C156.287 210.42 153.347 208.39 153.347 203.77ZM130.387 184.38C130.387 184.52 130.317 184.66 130.317 184.8C130.317 184.66 130.387 184.52 130.387 184.38ZM185.787 175.28C179.137 175.28 176.127 182.07 176.127 189.63C176.127 198.94 180.747 209.3 188.797 209.3C193.207 209.3 196.147 207.69 197.757 204.75C196.147 208.81 192.297 211.05 186.347 211.05C174.517 211.05 169.547 201.81 169.547 192.64C169.547 183.4 174.587 174.23 186.347 174.23C192.367 174.23 196.287 176.33 198.667 179.41V157.5H204.687V210H198.667V190.33C197.337 182.56 192.787 175.28 185.787 175.28ZM240.232 203.77V195.3C237.642 191.59 233.652 189.63 229.732 189.63C222.312 189.63 219.022 194.6 219.022 199.43C219.022 203.98 221.962 208.32 227.072 208.32C230.152 208.32 234.212 206.64 239.392 202.37C234.772 207.83 228.752 210.77 223.712 210.77C217.062 210.77 213.142 205.59 213.142 200.27C213.142 194.6 217.622 188.72 227.842 188.72C232.532 188.72 237.292 190.47 240.232 194.39V192.71C240.232 183.96 240.302 175.56 230.432 175.56C222.032 175.56 218.112 181.3 217.272 184.38C218.742 178.43 224.342 174.23 230.642 174.23C244.082 174.23 246.182 182.84 246.182 192.71V203.56C246.182 207.41 247.372 208.81 248.982 208.81C250.312 208.81 251.922 207.83 253.182 206.57C251.712 209.09 248.982 210.42 246.392 210.42C243.172 210.42 240.232 208.39 240.232 203.77ZM217.272 184.38C217.272 184.52 217.202 184.66 217.202 184.8C217.202 184.66 217.272 184.52 217.272 184.38Z" fill="#505050"/>
</svg>
