<svg width="52" height="52" viewBox="0 0 52 52" fill="none" xmlns="http://www.w3.org/2000/svg">
<path d="M25.8972 6.57764C15.1889 6.57764 6.47461 15.2919 6.47461 26.0002C6.47461 36.7085 15.1889 45.4228 25.8972 45.4228C36.6055 45.4228 45.3198 36.7085 45.3198 26.0002C45.3198 15.2919 36.6055 6.57764 25.8972 6.57764ZM25.8972 9.81473C34.8559 9.81473 42.0827 17.0416 42.0827 26.0002C42.0856 29.8747 40.6958 33.6211 38.1668 36.5563C35.6377 39.4915 32.1379 41.4199 28.3056 41.9899V30.7199H32.9152L33.6387 26.0374H28.3056V23.4801C28.3056 21.5379 28.9449 19.8109 30.7625 19.8109H33.684V15.7257C33.1709 15.6561 32.0849 15.5055 30.0326 15.5055C25.7467 15.5055 23.2347 17.7683 23.2347 22.925V26.0374H18.829V30.7199H23.2347V41.9494C19.455 41.3273 16.0196 39.3816 13.5423 36.4598C11.065 33.5381 9.70732 29.8308 9.71171 26.0002C9.71171 17.0416 16.9385 9.81473 25.8972 9.81473Z" fill="#505050"/>
</svg>
