<svg width="37" height="37" viewBox="0 0 37 37" fill="none" xmlns="http://www.w3.org/2000/svg">
<g clip-path="url(#clip0_108_205)">
<path d="M11.379 19.8298C10.5529 19.8327 9.72961 19.7326 8.92825 19.5317L9.1932 18.6044C9.90893 18.778 10.6426 18.8669 11.379 18.8693C13.3199 18.8392 15.1937 18.1541 16.6964 16.9253C18.199 15.6965 19.2424 13.996 19.6573 12.0998C20.0721 10.2035 19.8341 8.22266 18.9818 6.47865C18.1295 4.73465 16.7129 3.32979 14.9619 2.49198C13.2109 1.65418 11.2281 1.43258 9.33535 1.86315C7.44258 2.29372 5.75081 3.35118 4.53451 4.86399C3.31822 6.3768 2.64875 8.2562 2.63472 10.1973C2.62069 12.1383 3.26293 14.0272 4.45723 15.5575L3.6955 16.1205C2.39549 14.4333 1.70658 12.3549 1.7415 10.2253C1.73494 8.31783 2.2946 6.45126 3.34959 4.86202C4.40459 3.27279 5.90746 2.03237 7.6679 1.29785C9.42835 0.563323 11.3672 0.367736 13.2388 0.735854C15.1105 1.10397 16.8309 2.01924 18.182 3.36574C19.5332 4.71225 20.4543 6.42943 20.8289 8.29982C21.2035 10.1702 21.0145 12.1097 20.2861 13.8727C19.5576 15.6356 18.3224 17.1428 16.7368 18.2032C15.1512 19.2637 13.2866 19.8298 11.379 19.8298Z" fill="#CFCFCF"/>
<path d="M26.6123 22.115C24.7506 22.1178 22.9279 21.5813 21.3645 20.5704C19.8012 19.5596 18.5641 18.1175 17.8027 16.4185L18.6969 16.0211C19.3806 17.5491 20.4916 18.8467 21.896 19.7575C23.3005 20.6684 24.9384 21.1535 26.6123 21.1545C27.3377 21.1501 28.0602 21.0612 28.765 20.8896L29.03 21.8169C28.2399 22.0177 27.4275 22.1179 26.6123 22.115Z" fill="#CFCFCF"/>
<path d="M34.2647 18.3066L33.503 17.7435C34.6486 16.2403 35.2657 14.4008 35.2583 12.5108C35.2637 10.7474 34.7296 9.02458 33.7277 7.57345C32.7259 6.12231 31.3041 5.0123 29.6533 4.39235C28.0025 3.77239 26.2016 3.67215 24.4922 4.10508C22.7828 4.53801 21.2467 5.48339 20.0899 6.81438L19.3613 6.15201C20.6559 4.68789 22.3651 3.65197 24.262 3.18166C26.1589 2.71134 28.1541 2.82887 29.9827 3.51864C31.8113 4.20841 33.387 5.43783 34.5007 7.0438C35.6145 8.64978 36.2136 10.5564 36.2187 12.5108C36.2313 14.6065 35.5436 16.6463 34.2647 18.3066Z" fill="#CFCFCF"/>
<path d="M11.3797 36.5879C11.2567 36.5879 11.1388 36.5391 11.0518 36.4521C10.9649 36.3652 10.916 36.2473 10.916 36.1243V9.62935C10.916 9.49759 10.9684 9.37124 11.0615 9.27807C11.1547 9.18491 11.281 9.13257 11.4128 9.13257C11.5387 9.14098 11.6567 9.19701 11.7429 9.28928C11.829 9.38155 11.8767 9.50314 11.8765 9.62935V36.2899C11.8765 36.3508 11.8645 36.4111 11.8412 36.4673C11.8179 36.5236 11.7837 36.5747 11.7407 36.6177C11.6976 36.6608 11.6465 36.6949 11.5902 36.7182C11.534 36.7415 11.4737 36.7535 11.4128 36.7535" fill="#CFCFCF"/>
<path d="M26.6101 36.5878C26.5464 36.5924 26.4826 36.5838 26.4224 36.5625C26.3623 36.5413 26.3072 36.5078 26.2606 36.4643C26.214 36.4208 26.1768 36.3681 26.1515 36.3096C26.1261 36.2511 26.1131 36.188 26.1133 36.1242V10.9871C26.1217 10.8612 26.1777 10.7432 26.27 10.657C26.3623 10.5709 26.4838 10.5232 26.6101 10.5234C26.736 10.5319 26.854 10.5879 26.9401 10.6802C27.0262 10.7724 27.074 10.894 27.0737 11.0202V36.1573C27.0737 36.2803 27.0249 36.3982 26.9379 36.4852C26.851 36.5721 26.733 36.621 26.6101 36.621" fill="#CFCFCF"/>
<path d="M11.377 25.9236C11.2599 25.9698 11.1297 25.9698 11.0127 25.9236L4.91882 19.6973C4.86948 19.6538 4.82997 19.6003 4.8029 19.5403C4.77584 19.4804 4.76184 19.4153 4.76184 19.3496C4.76184 19.2838 4.77584 19.2188 4.8029 19.1588C4.82997 19.0988 4.86948 19.0453 4.91882 19.0018C5.018 18.9239 5.14046 18.8816 5.26657 18.8816C5.39267 18.8816 5.51513 18.9239 5.61431 19.0018L11.7081 25.0957C11.7992 25.1885 11.8502 25.3134 11.8502 25.4434C11.8502 25.5734 11.7992 25.6983 11.7081 25.7912C11.6015 25.8319 11.4836 25.8319 11.377 25.7912" fill="#CFCFCF"/>
<path d="M5.28467 16.0211C4.62964 16.0211 3.98932 16.2154 3.44469 16.5793C2.90006 16.9432 2.47557 17.4604 2.2249 18.0656C1.97423 18.6708 1.90865 19.3367 2.03643 19.9791C2.16422 20.6215 2.47965 21.2117 2.94282 21.6748C3.40599 22.138 3.99611 22.4534 4.63855 22.5812C5.28099 22.709 5.9469 22.6434 6.55206 22.3928C7.15723 22.1421 7.67447 21.7176 8.03838 21.173C8.4023 20.6283 8.59653 19.988 8.59653 19.333C8.59653 18.4546 8.2476 17.6122 7.62651 16.9911C7.00541 16.3701 6.16303 16.0211 5.28467 16.0211ZM5.28467 23.7709C4.43603 23.7772 3.60446 23.5326 2.89443 23.0677C2.1844 22.6029 1.62759 21.9385 1.29395 21.1582C0.960306 20.3779 0.864718 19.5164 1.01919 18.6819C1.17367 17.8474 1.57132 17.0772 2.16218 16.468C2.75304 15.8588 3.51076 15.4379 4.34014 15.258C5.16951 15.0781 6.03355 15.1473 6.8237 15.457C7.61384 15.7667 8.29485 16.303 8.78115 16.9985C9.26745 17.694 9.53737 18.5177 9.55697 19.3661C9.57017 19.937 9.46965 20.5049 9.26127 21.0366C9.05289 21.5683 8.74081 22.0532 8.34321 22.4632C7.94561 22.8731 7.47043 23.1998 6.94533 23.4243C6.42024 23.6488 5.85573 23.7667 5.28467 23.7709Z" fill="#CFCFCF"/>
<path d="M11.3766 31.2557C11.2595 31.3018 11.1293 31.3018 11.0123 31.2557C10.9308 31.2216 10.8599 31.1665 10.8068 31.0959C10.7537 31.0254 10.7204 30.9419 10.7103 30.8542C10.7002 30.7665 10.7136 30.6777 10.7492 30.5969C10.7849 30.5161 10.8414 30.4463 10.9129 30.3946L17.1061 24.3339C17.2053 24.256 17.3278 24.2136 17.4539 24.2136C17.58 24.2136 17.7024 24.256 17.8016 24.3339C17.8926 24.4267 17.9436 24.5516 17.9436 24.6816C17.9436 24.8116 17.8926 24.9365 17.8016 25.0293L11.7078 31.1232C11.6011 31.164 11.4832 31.164 11.3766 31.1232" fill="#CFCFCF"/>
<path d="M17.5355 21.3533C16.8805 21.3533 16.2402 21.5475 15.6956 21.9114C15.1509 22.2753 14.7264 22.7926 14.4758 23.3977C14.2251 24.0029 14.1595 24.6688 14.2873 25.3112C14.4151 25.9537 14.7305 26.5438 15.1937 27.007C15.6569 27.4701 16.247 27.7856 16.8894 27.9134C17.5319 28.0411 18.1978 27.9756 18.8029 27.7249C19.4081 27.4742 19.9253 27.0497 20.2892 26.5051C20.6532 25.9605 20.8474 25.3202 20.8474 24.6651C20.8474 23.7868 20.4985 22.9444 19.8774 22.3233C19.2563 21.7022 18.4139 21.3533 17.5355 21.3533ZM17.5355 28.9706C16.6786 28.9903 15.8353 28.7539 15.1136 28.2915C14.3919 27.8291 13.8247 27.1618 13.4845 26.3751C13.1443 25.5883 13.0467 24.718 13.2041 23.8755C13.3615 23.0329 13.7669 22.2565 14.3682 21.6457C14.9695 21.035 15.7395 20.6175 16.5794 20.447C17.4194 20.2764 18.2912 20.3604 19.0831 20.6883C19.8751 21.0161 20.5511 21.5729 21.0248 22.2873C21.4984 23.0017 21.748 23.8411 21.7416 24.6982C21.7333 25.8174 21.2895 26.8893 20.5044 27.6868C19.7192 28.4843 18.6544 28.9448 17.5355 28.9706Z" fill="#CFCFCF"/>
<path d="M26.6136 28.2088C26.4966 28.2549 26.3664 28.2549 26.2493 28.2088C26.1583 28.1159 26.1073 27.9911 26.1073 27.861C26.1073 27.731 26.1583 27.6062 26.2493 27.5133L32.3431 21.287C32.4423 21.2091 32.5648 21.1667 32.6909 21.1667C32.817 21.1667 32.9395 21.2091 33.0386 21.287C33.088 21.3305 33.1275 21.384 33.1546 21.444C33.1816 21.5039 33.1956 21.5689 33.1956 21.6347C33.1956 21.7005 33.1816 21.7655 33.1546 21.8255C33.1275 21.8854 33.088 21.939 33.0386 21.9825L26.9448 28.0763C26.8382 28.1171 26.7202 28.1171 26.6136 28.0763" fill="#CFCFCF"/>
<path d="M32.7056 18.3064C32.0506 18.3064 31.4103 18.5007 30.8656 18.8646C30.321 19.2285 29.8965 19.7457 29.6458 20.3509C29.3952 20.9561 29.3296 21.622 29.4574 22.2644C29.5852 22.9068 29.9006 23.497 30.3638 23.9601C30.8269 24.4233 31.4171 24.7387 32.0595 24.8665C32.7019 24.9943 33.3678 24.9287 33.973 24.6781C34.5782 24.4274 35.0954 24.0029 35.4593 23.4583C35.8232 22.9136 36.0175 22.2733 36.0175 21.6183C36.0175 20.7399 35.6685 19.8975 35.0475 19.2764C34.4264 18.6554 33.584 18.3064 32.7056 18.3064ZM32.7056 25.9237C31.8513 25.9303 31.0143 25.6825 30.3013 25.2119C29.5882 24.7414 29.0312 24.0693 28.7013 23.2813C28.3713 22.4932 28.2832 21.6248 28.4483 20.7866C28.6134 19.9483 29.0241 19.1781 29.6282 18.574C30.2323 17.9699 31.0025 17.5592 31.8408 17.3941C32.679 17.229 33.5474 17.3171 34.3355 17.6471C35.1235 17.977 35.7956 18.534 36.2661 19.2471C36.7367 19.9601 36.9845 20.7971 36.9779 21.6514C36.9693 22.7818 36.5164 23.8635 35.717 24.6628C34.9177 25.4622 33.836 25.9151 32.7056 25.9237Z" fill="#CFCFCF"/>
<path d="M11.3755 13.8355C11.2584 13.8816 11.1282 13.8816 11.0112 13.8355L7.96427 10.5236C7.87325 10.4307 7.82227 10.3059 7.82227 10.1759C7.82227 10.0458 7.87325 9.92098 7.96427 9.82812C8.06345 9.75022 8.18591 9.70789 8.31202 9.70789C8.43813 9.70789 8.56059 9.75022 8.65977 9.82812L11.7067 12.875C11.7977 12.9679 11.8487 13.0927 11.8487 13.2228C11.8487 13.3528 11.7977 13.4777 11.7067 13.5705C11.6001 13.6113 11.4821 13.6113 11.3755 13.5705" fill="#CFCFCF"/>
<path d="M26.6157 16.0211C26.4987 16.0672 26.3685 16.0672 26.2514 16.0211L23.2045 12.8417C23.1135 12.7489 23.0625 12.624 23.0625 12.494C23.0625 12.3639 23.1135 12.2391 23.2045 12.1462C23.3037 12.0683 23.4261 12.026 23.5523 12.026C23.6784 12.026 23.8008 12.0683 23.9 12.1462L26.9469 15.1931C26.9963 15.2367 27.0358 15.2902 27.0628 15.3501C27.0899 15.4101 27.1039 15.4751 27.1039 15.5409C27.1039 15.6067 27.0899 15.6717 27.0628 15.7317C27.0358 15.7916 26.9963 15.8451 26.9469 15.8886C26.8403 15.9294 26.7224 15.9294 26.6157 15.8886" fill="#CFCFCF"/>
<path d="M11.3755 16.783C11.2584 16.8291 11.1282 16.8291 11.0111 16.783C10.9201 16.6901 10.8691 16.5652 10.8691 16.4352C10.8691 16.3052 10.9201 16.1803 11.0111 16.0875L13.6938 13.438C13.7547 13.4286 13.817 13.4315 13.8768 13.4465C13.9366 13.4615 13.9929 13.4883 14.0422 13.5253C14.0916 13.5624 14.133 13.6088 14.1642 13.6621C14.1953 13.7153 14.2156 13.7742 14.2237 13.8354L11.5742 16.518C11.4675 16.5588 11.3496 16.5588 11.243 16.518" fill="#CFCFCF"/>
<path d="M26.6111 18.3064C26.4941 18.3525 26.3639 18.3525 26.2468 18.3064C26.1975 18.2629 26.158 18.2094 26.1309 18.1494C26.1038 18.0895 26.0898 18.0244 26.0898 17.9586C26.0898 17.8929 26.1038 17.8278 26.1309 17.7679C26.158 17.7079 26.1975 17.6544 26.2468 17.6109L28.9294 14.9614C29.0173 14.8736 29.1364 14.8242 29.2606 14.8242C29.3848 14.8242 29.504 14.8736 29.5918 14.9614C29.6796 15.0492 29.729 15.1684 29.729 15.2926C29.729 15.4168 29.6796 15.5359 29.5918 15.6238L26.9423 18.3064C26.8357 18.3472 26.7178 18.3472 26.6111 18.3064Z" fill="#CFCFCF"/>
</g>
<defs>
<clipPath id="clip0_108_205">
<rect width="36" height="36" fill="white" transform="translate(0.978516 0.587891)"/>
</clipPath>
</defs>
</svg>
