<svg width="51" height="35" viewBox="0 0 51 35" fill="none" xmlns="http://www.w3.org/2000/svg">
<g clip-path="url(#clip0_108_222)">
<path d="M29.4081 29.5855H34.6367V14.7193H29.4081V29.5855ZM35.5128 31.3377H28.5319C28.4182 31.3378 28.3056 31.315 28.2008 31.2706C28.0961 31.2262 28.0013 31.1612 27.9222 31.0795C27.8431 30.9977 27.7812 30.9009 27.7403 30.7948C27.6994 30.6886 27.6803 30.5753 27.6841 30.4616V13.7018C27.6803 13.5881 27.6994 13.4748 27.7403 13.3687C27.7812 13.2625 27.8431 13.1657 27.9222 13.0839C28.0013 13.0022 28.0961 12.9372 28.2008 12.8928C28.3056 12.8485 28.4182 12.8256 28.5319 12.8257H35.5128C35.7452 12.8257 35.968 12.918 36.1324 13.0823C36.2967 13.2466 36.389 13.4695 36.389 13.7018V30.4616C36.389 30.694 36.2967 30.9168 36.1324 31.0811C35.968 31.2454 35.7452 31.3377 35.5128 31.3377Z" fill="#CFCFCF"/>
<path d="M2.7308 32.8356H4.48309V2.34018H2.7308V32.8356ZM5.35923 34.5879H1.85466C1.62229 34.5879 1.39944 34.4956 1.23513 34.3313C1.07082 34.167 0.978516 33.9441 0.978516 33.7118V1.46403C0.978516 1.23167 1.07082 1.00882 1.23513 0.844507C1.39944 0.680198 1.62229 0.587891 1.85466 0.587891H5.35923C5.5916 0.587891 5.81445 0.680198 5.97876 0.844507C6.14307 1.00882 6.23537 1.23167 6.23537 1.46403V33.7118C6.23537 33.9441 6.14307 34.167 5.97876 34.3313C5.81445 34.4956 5.5916 34.5879 5.35923 34.5879Z" fill="#CFCFCF"/>
<path d="M46.5648 32.8356H48.3171V28.0875H46.5648V32.8356ZM49.1932 34.5879H45.6886C45.4563 34.5879 45.2334 34.4956 45.0691 34.3313C44.9048 34.167 44.8125 33.9441 44.8125 33.7118V27.2113C44.8125 26.979 44.9048 26.7561 45.0691 26.5918C45.2334 26.4275 45.4563 26.3352 45.6886 26.3352H49.1932C49.4256 26.3352 49.6484 26.4275 49.8127 26.5918C49.9771 26.7561 50.0694 26.979 50.0694 27.2113V33.7118C50.0694 33.9441 49.9771 34.167 49.8127 34.3313C49.6484 34.4956 49.4256 34.5879 49.1932 34.5879Z" fill="#CFCFCF"/>
<path d="M6.23666 26.3353H48.3198V20.9088H6.23666V26.3353ZM49.1959 28.0875H5.36052C5.24546 28.0875 5.13153 28.0649 5.02523 28.0208C4.91893 27.9768 4.82235 27.9123 4.74099 27.8309C4.65963 27.7496 4.5951 27.653 4.55107 27.5467C4.50704 27.4404 4.48438 27.3265 4.48438 27.2114V20.0327C4.48431 19.9189 4.50714 19.8063 4.55151 19.7015C4.59588 19.5968 4.66087 19.502 4.74262 19.4229C4.82437 19.3438 4.92121 19.282 5.02736 19.241C5.13352 19.2001 5.24682 19.181 5.36052 19.1848H49.1959C49.3096 19.181 49.4229 19.2001 49.5291 19.241C49.6352 19.282 49.7321 19.3438 49.8138 19.4229C49.8956 19.502 49.9606 19.5968 50.0049 19.7015C50.0493 19.8063 50.0721 19.9189 50.0721 20.0327V27.2114C50.0721 27.4438 49.9798 27.6666 49.8155 27.8309C49.6512 27.9952 49.4283 28.0875 49.1959 28.0875Z" fill="#CFCFCF"/>
<path d="M6.23666 19.1848H47.3306V16.9803C47.2945 16.368 47.0256 15.7926 46.5789 15.3722C46.1322 14.9518 45.5417 14.7182 44.9283 14.7193H6.23666V19.1848ZM48.2067 20.9088H5.36052C5.12815 20.9088 4.9053 20.8165 4.74099 20.6522C4.57668 20.4879 4.48438 20.265 4.48438 20.0327V13.7018C4.48438 13.5868 4.50704 13.4728 4.55107 13.3665C4.5951 13.2602 4.65963 13.1637 4.74099 13.0823C4.82235 13.0009 4.91893 12.9364 5.02523 12.8924C5.13153 12.8483 5.24546 12.8257 5.36052 12.8257H44.9283C46.0203 12.8405 47.0626 13.2848 47.8295 14.0623C48.5965 14.8399 49.0265 15.8881 49.0264 16.9803V20.0327C49.0264 20.265 48.934 20.4879 48.7697 20.6522C48.6054 20.8165 48.3826 20.9088 48.1502 20.9088" fill="#CFCFCF"/>
<path d="M8.63879 10.706C10.2669 11.965 12.2368 12.7037 14.2913 12.8257C16.3458 12.7037 18.3158 11.965 19.9439 10.706C18.3158 9.44695 16.3458 8.70822 14.2913 8.58627C12.2357 8.70296 10.2643 9.44226 8.63879 10.706ZM14.3479 14.7193C11.4677 14.5108 8.74528 13.3241 6.63214 11.356C6.45606 11.185 6.35451 10.9514 6.34952 10.706C6.35884 10.4697 6.46029 10.2465 6.63214 10.0842C8.75107 8.14155 11.4776 6.99302 14.3479 6.83398C17.2082 6.99944 19.9238 8.14754 22.0353 10.0842C22.2072 10.2465 22.3086 10.4697 22.3179 10.706C22.3129 10.9514 22.2114 11.185 22.0353 11.356C19.9296 13.3183 17.2181 14.5045 14.3479 14.7193Z" fill="#CFCFCF"/>
</g>
<defs>
<clipPath id="clip0_108_222">
<rect width="49.0923" height="34" fill="white" transform="translate(0.978516 0.587891)"/>
</clipPath>
</defs>
</svg>
