<svg width="279" height="61" viewBox="0 0 279 61" fill="none" xmlns="http://www.w3.org/2000/svg">
<g clip-path="url(#clip0_108_275)">
<path d="M226.343 40.4907V45.2176C225.426 45.5695 224.449 45.7417 223.466 45.7249C220.416 45.7249 218.752 43.7234 218.752 40.6052C218.752 37.4869 220.404 35.4978 223.76 35.4978C224.622 35.4796 225.481 35.6083 226.3 35.8783C226.244 36.4174 226.141 36.9505 225.991 37.4714C225.274 37.2017 224.514 37.0684 223.748 37.0786C221.703 37.0786 220.654 38.3624 220.654 40.5897C220.654 42.817 221.657 44.1472 223.575 44.1472C223.886 44.1459 224.197 44.1169 224.503 44.0606V40.4783L226.343 40.4907Z" fill="#505050"/>
<path d="M231.964 38.4174C231.966 38.9161 231.91 39.4134 231.797 39.8992C231.387 39.8402 230.974 39.8112 230.56 39.8125C230.249 39.8115 229.939 39.8311 229.632 39.8713V45.4953H227.828V38.6896C228.684 38.4573 229.565 38.3336 230.451 38.3215C230.957 38.3136 231.463 38.3457 231.964 38.4174Z" fill="#505050"/>
<path d="M238.717 38.4604V45.2167C237.789 45.5032 236.826 45.6553 235.855 45.6683C233.498 45.6683 232.762 44.6382 232.762 43.1162V38.4604H234.565V42.9182C234.565 43.8462 234.933 44.2453 235.892 44.2453C236.235 44.2439 236.576 44.2056 236.91 44.1308V38.4604H238.717Z" fill="#505050"/>
<path d="M246.497 41.874C246.497 44.1601 245.34 45.6698 242.844 45.6698C242.565 45.6712 242.286 45.6567 242.009 45.6265V48.491H240.205V38.8548C241.095 38.4869 242.048 38.2957 243.011 38.2917C245.282 38.2917 246.497 39.5199 246.497 41.874ZM244.663 41.9328C244.663 40.4912 244.168 39.7457 242.927 39.7457C242.614 39.7436 242.301 39.7863 241.999 39.8725V44.1168C242.287 44.1775 242.581 44.2065 242.875 44.2034C244.211 44.2034 244.663 43.2847 244.663 41.9328Z" fill="#505050"/>
<path d="M247.242 41.9881C247.242 39.6587 248.442 38.2759 250.586 38.2759C252.73 38.2759 253.946 39.6432 253.946 41.9881C253.946 44.333 252.708 45.6694 250.586 45.6694C248.464 45.6694 247.242 44.2866 247.242 41.9881ZM252.096 41.9881C252.096 40.4785 251.632 39.7453 250.586 39.7453C249.541 39.7453 249.092 40.4785 249.092 41.9881C249.092 43.4977 249.572 44.2154 250.586 44.2154C251.601 44.2154 252.096 43.4822 252.096 41.9881Z" fill="#505050"/>
<path d="M218.802 59.1071C218.814 58.5851 218.885 58.0662 219.015 57.5604C219.753 57.9704 220.584 58.1834 221.428 58.1791C222.557 58.1791 223.219 57.7398 223.219 56.9231C223.219 56.0198 222.443 55.6671 221.672 55.3547L220.84 55.0453C219.699 54.5968 218.768 53.777 218.768 52.2117C218.768 50.6464 219.798 49.4739 222.223 49.4739C223.08 49.4608 223.932 49.6088 224.735 49.9101C224.7 50.4093 224.624 50.9049 224.509 51.3919C223.803 51.1327 223.059 50.9946 222.307 50.9836C221.069 50.9836 220.63 51.5064 220.63 52.1529C220.63 53.016 221.32 53.3903 221.969 53.6347L222.802 53.9441C224.002 54.3957 225.103 55.2124 225.103 56.8086C225.103 58.4853 223.866 59.7134 221.447 59.7134C220.528 59.7371 219.618 59.5286 218.802 59.1071Z" fill="#505050"/>
<path d="M232.121 52.5771V59.4354H230.469L230.357 58.4454C230.22 58.7981 229.976 59.0991 229.659 59.3065C229.343 59.5139 228.969 59.6173 228.591 59.6024C227.026 59.6024 225.912 58.5321 225.912 55.9645C225.912 53.6907 226.887 52.2244 229.482 52.2244C230.374 52.2174 231.262 52.3361 232.121 52.5771ZM230.327 57.6844V53.7619C230.035 53.7017 229.737 53.6737 229.439 53.6784C228.112 53.6784 227.747 54.5662 227.747 55.9212C227.747 57.5298 228.238 58.1516 229.142 58.1516C229.361 58.1588 229.579 58.1211 229.783 58.0408C229.986 57.9604 230.171 57.8392 230.327 57.6844Z" fill="#505050"/>
<path d="M239.57 54.7763V59.4351H237.764V54.9743C237.764 54.0462 237.395 53.6502 236.437 53.6502C236.095 53.6506 235.755 53.6879 235.422 53.7616V59.4351H233.615V52.6758C234.544 52.3892 235.508 52.2371 236.48 52.2241C238.834 52.2241 239.57 53.2543 239.57 54.7763Z" fill="#505050"/>
<path d="M243.665 58.1358C243.993 58.1301 244.316 58.0531 244.612 57.91C244.576 58.3932 244.51 58.8736 244.414 59.3485C244.028 59.5338 243.603 59.6209 243.176 59.6021C241.722 59.6021 240.918 58.8411 240.918 57.2201V50.4454C241.506 50.2835 242.114 50.2033 242.725 50.2072V52.3943H244.67C244.646 52.8711 244.594 53.3462 244.516 53.8173H242.737V57.0345C242.737 57.7955 243.009 58.1358 243.665 58.1358Z" fill="#505050"/>
<path d="M251.449 52.5771V59.4354H249.797L249.686 58.4454C249.548 58.7981 249.304 59.0991 248.987 59.3065C248.671 59.5139 248.297 59.6173 247.919 59.6024C246.354 59.6024 245.24 58.5321 245.24 55.9645C245.24 53.6907 246.215 52.2244 248.81 52.2244C249.702 52.2174 250.59 52.3361 251.449 52.5771ZM249.655 57.6844V53.7619C249.363 53.7017 249.065 53.6737 248.767 53.6784C247.44 53.6784 247.075 54.5662 247.075 55.9212C247.075 57.5298 247.567 58.1516 248.47 58.1516C248.689 58.1588 248.907 58.1211 249.111 58.0408C249.314 57.9604 249.5 57.8392 249.655 57.6844Z" fill="#505050"/>
<path d="M258.899 54.7763V59.4351H257.093V54.9743C257.093 54.0462 256.724 53.6502 255.765 53.6502C255.424 53.6506 255.084 53.6879 254.751 53.7616V59.4351H252.947V52.6758C253.876 52.3892 254.84 52.2371 255.812 52.2241C258.163 52.2241 258.899 53.2543 258.899 54.7763Z" fill="#505050"/>
<path d="M266.247 52.5926V59.4354H264.582L264.483 58.4733C264.345 58.8224 264.1 59.1192 263.784 59.3218C263.467 59.5243 263.095 59.6225 262.72 59.6024C261.112 59.6024 259.982 58.5042 259.982 56.0047C259.982 53.6907 260.969 52.2244 263.537 52.2244C263.846 52.2244 264.156 52.2244 264.465 52.2523V49.6692C265.048 49.5031 265.65 49.4178 266.256 49.4155V52.5771L266.247 52.5926ZM264.456 57.6999V53.7619C264.167 53.7039 263.874 53.6759 263.58 53.6784C262.253 53.6784 261.817 54.5105 261.817 55.9366C261.817 57.5019 262.296 58.1516 263.311 58.1516C263.731 58.1498 264.135 57.9883 264.44 57.6999H264.456Z" fill="#505050"/>
<path d="M273.527 56.5426H269.165C269.335 57.7801 269.969 58.1915 271.197 58.1915C271.962 58.1886 272.715 58.0097 273.4 57.6687C273.355 58.1668 273.28 58.6617 273.174 59.1505C272.485 59.47 271.731 59.6247 270.971 59.6021C268.447 59.6021 267.346 58.1636 267.346 55.8497C267.346 53.7616 268.376 52.2241 270.578 52.2241C272.679 52.2241 273.598 53.5915 273.598 55.3702C273.598 55.7621 273.574 56.1537 273.527 56.5426ZM269.152 55.2434H271.831C271.831 54.1978 271.423 53.6193 270.535 53.6193C269.731 53.6193 269.264 54.1576 269.152 55.2434Z" fill="#505050"/>
<path d="M279 52.3507C279.001 52.8496 278.944 53.347 278.83 53.8325C278.42 53.7745 278.006 53.7466 277.592 53.749C277.282 53.7467 276.972 53.7653 276.664 53.8047V59.4349H274.857V52.6106C275.714 52.3785 276.596 52.2549 277.484 52.2425C277.991 52.2386 278.498 52.2748 279 52.3507Z" fill="#505050"/>
<path d="M15.0344 0.370605H0V15.405H15.0344V0.370605Z" fill="#505050"/>
<path d="M34.4836 0.370605H19.4492V15.405H34.4836V0.370605Z" fill="#58978B"/>
<path d="M15.0344 19.8196H0V34.854H15.0344V19.8196Z" fill="#505050"/>
<path d="M34.4836 19.8193H19.4492V34.8538H34.4836V19.8193Z" fill="#505050"/>
<path d="M48.6309 0.370449H57.7103V34.8537H48.6309V0.370449ZM78.8606 20.4782C79.2535 20.1194 79.4483 19.5502 79.4483 18.718C79.4483 17.79 78.9843 17.0877 78.0594 16.5866C77.1404 16.0919 76.1116 15.8365 75.0679 15.8441C72.4725 15.8441 70.9536 16.93 70.536 19.1047H62.0412C61.9934 17.5801 62.3923 16.0747 63.1889 14.7738C63.9605 13.5855 65.0163 12.6083 66.2607 11.9309C67.5451 11.2155 68.9333 10.7051 70.3751 10.4181C71.9583 10.107 73.5689 9.95671 75.1824 9.96959C79.1359 9.96959 82.2779 10.6203 84.6083 11.9216C86.9387 13.2229 88.105 15.6719 88.1071 19.2687V31.3828C88.1071 32.7749 88.1349 33.9226 88.2061 34.8383H61.7288C61.1627 33.5944 60.8856 32.2386 60.9183 30.8724C60.9183 26.4342 63.6591 23.6635 69.1408 22.5601C72.853 22.0312 75.2907 21.6321 76.4879 21.3877C77.685 21.1433 78.4739 20.8525 78.8606 20.4906V20.4782ZM79.4483 25.5052C78.9039 25.8145 77.8366 26.1548 76.2311 26.492C74.6256 26.8292 73.5305 27.0705 72.9396 27.2128C72.2349 27.4111 71.5809 27.7581 71.0216 28.2305C70.6799 28.5036 70.4084 28.8544 70.2297 29.2536C70.051 29.6529 69.9704 30.0891 69.9946 30.5259C69.9946 31.5932 70.3565 32.382 71.0773 32.9048C71.8911 33.4478 72.8562 33.7186 73.8336 33.6782C75.962 33.6782 77.4303 33.0471 78.2388 31.785C79.0462 30.5352 79.4545 28.4409 79.4483 25.5175V25.5052ZM101.536 34.8414V23.3923C101.483 21.886 101.926 20.404 102.795 19.1728C103.633 18.0344 104.849 17.4651 106.452 17.4651C107.98 17.4651 109.124 17.8395 109.876 18.585C110.628 19.3305 110.996 20.967 110.996 23.4975V34.8568H120.072V20.7164C120.072 17.7962 119.423 15.277 118.123 13.159C116.824 11.041 114.143 9.98093 110.08 9.97887C108.312 9.98337 106.572 10.4153 105.007 11.2379C103.477 11.9778 102.184 13.128 101.27 14.5603V10.7832H92.4534V34.8537L101.536 34.8414ZM151.923 34.8414H126.247C124.185 31.9376 123.153 28.3945 123.153 24.2121C123.153 20.3947 124.169 17.1372 126.2 14.4397C128.232 11.7422 131.119 10.3944 134.862 10.3965C138.247 10.3965 140.88 11.5184 142.763 13.7622L142.868 0.35498H151.948V34.8537L151.923 34.8414ZM132.214 24.3234C132.214 26.5673 132.654 28.4636 133.532 30.0124C134.411 31.5612 135.84 32.3366 137.82 32.3387C139.83 32.3387 141.241 31.5818 142.052 30.0681C142.862 28.5615 143.267 26.7333 143.267 24.5988C143.267 22.3529 142.835 20.5092 141.971 19.0676C141.107 17.626 139.723 16.9042 137.82 16.9021C135.883 16.9021 134.463 17.6239 133.56 19.0676C132.657 20.5112 132.208 22.2694 132.214 24.342V24.3234Z" fill="#505050"/>
<path d="M171.507 48.3886H180.321C179.931 52.043 178.464 54.8942 175.919 56.9421C173.374 58.99 170.195 60.0212 166.381 60.0356C162.185 60.0356 158.715 58.7209 155.972 56.0914C153.229 53.4619 151.857 50.0518 151.857 45.8612C151.857 41.4189 153.174 37.7943 155.808 34.9875C155.851 34.9411 155.894 34.9009 155.938 34.8607H177.156C178.845 36.624 179.819 38.9111 180.076 41.7221H171.248C171.256 41.1782 171.143 40.6393 170.917 40.1448C170.69 39.6502 170.356 39.2125 169.939 38.8637C169.076 38.1043 167.961 37.6949 166.811 37.716C164.532 37.716 162.985 38.4863 162.171 40.0083C161.358 41.5303 160.934 43.4823 160.934 45.8612C160.885 47.6574 161.35 49.4303 162.273 50.9716C163.161 52.3916 164.519 53.0969 166.332 53.0969C167.82 53.0969 169.008 52.6854 169.88 51.8595C170.753 51.0335 171.294 49.8704 171.507 48.3886ZM211.927 45.4281C211.927 49.6229 210.556 53.1062 207.813 55.8779C205.07 58.6497 201.564 60.0356 197.295 60.0356C193.026 60.0356 189.528 58.658 186.802 55.9027C184.075 53.1474 182.716 49.6559 182.724 45.4281C182.724 41.2333 184.087 37.7418 186.811 34.9535C186.843 34.9182 186.877 34.8851 186.913 34.8545H207.692L207.794 34.9535C210.549 37.7438 211.927 41.2354 211.927 45.4281ZM202.854 45.4281C202.897 43.5443 202.446 41.682 201.545 40.0268C200.673 38.4801 199.253 37.7129 197.298 37.7129C195.343 37.7129 193.975 38.4801 193.103 40.0052C192.194 41.6671 191.741 43.5404 191.791 45.4343C191.791 47.5605 192.218 49.3702 193.072 50.8634C193.926 52.3565 195.333 53.101 197.292 53.0969C199.216 53.0969 200.622 52.3348 201.511 50.8108C202.428 49.1652 202.892 47.3054 202.854 45.4219V45.4281Z" fill="#58978B"/>
</g>
<defs>
<clipPath id="clip0_108_275">
<rect width="279" height="59.6644" fill="white" transform="translate(0 0.370605)"/>
</clipPath>
</defs>
</svg>
