<svg width="63" height="42" viewBox="0 0 63 42" fill="none" xmlns="http://www.w3.org/2000/svg">
<g clip-path="url(#clip0_108_198)">
<path d="M62.3692 20.7078L31.5367 1.93822L0.749205 20.1676L0.164062 19.1774L31.5367 0.587891L62.9543 19.7175L62.3692 20.7078Z" fill="#CFCFCF"/>
<path d="M31.6683 32.5906H28.5176C28.3681 32.5843 28.2189 32.609 28.0795 32.6633C27.9401 32.7176 27.8135 32.8003 27.7077 32.906C27.6019 33.0118 27.5192 33.1384 27.465 33.2779C27.4107 33.4173 27.3859 33.5664 27.3923 33.7159C27.3923 34.301 27.7974 34.7061 28.5176 34.7512H35.1792C35.3385 34.7164 35.4873 34.6445 35.6135 34.5414C35.7398 34.4382 35.8399 34.3067 35.9057 34.1576C35.9715 34.0084 36.0011 33.8458 35.9922 33.683C35.9833 33.5202 35.936 33.3619 35.8543 33.2208C35.7707 33.0323 35.6304 32.8746 35.4529 32.7697C35.2754 32.6648 35.0695 32.6179 34.8641 32.6356H31.6683M31.6683 35.7864H28.4275C27.9655 35.7962 27.5145 35.644 27.1529 35.3563C26.7912 35.0686 26.5415 34.6634 26.447 34.211C26.3842 33.795 26.4496 33.3697 26.6346 32.9917C26.8195 32.6138 27.1152 32.3012 27.4823 32.0955C27.846 31.9633 28.2235 31.8727 28.6076 31.8254H34.8191C35.1657 31.812 35.5103 31.884 35.8225 32.0351C36.1347 32.1862 36.405 32.4117 36.6095 32.6919C36.8141 32.972 36.9466 33.2981 36.9954 33.6415C37.0443 33.9849 37.0079 34.3351 36.8896 34.6611C36.7306 35.0446 36.4624 35.3728 36.1182 35.6049C35.774 35.837 35.3692 35.9628 34.9541 35.9664L31.6683 35.7864Z" fill="#CFCFCF"/>
<path d="M24.2464 34.7063C23.7836 34.2204 23.3479 33.7095 22.9411 33.1759C22.7552 32.9233 22.492 32.7383 22.1915 32.6489C21.8909 32.5596 21.5694 32.5708 21.2757 32.6808V34.7063H24.2464ZM22.8961 35.7415H21.2307C21.0972 35.7557 20.9622 35.7398 20.8356 35.6951C20.709 35.6503 20.594 35.5778 20.4991 35.4829C20.4041 35.3879 20.3316 35.273 20.2869 35.1464C20.2421 35.0198 20.2263 34.8848 20.2404 34.7513V32.5907C20.2246 32.4588 20.2398 32.3251 20.2847 32.2C20.3296 32.075 20.403 31.9621 20.4991 31.8704C20.5952 31.7786 20.7113 31.7106 20.8383 31.6715C20.9653 31.6325 21.0997 31.6236 21.2307 31.6455C22.9861 31.6455 22.7161 31.6455 23.8413 32.7258C24.9666 33.806 24.7866 33.806 25.2817 34.3012C25.3768 34.4319 25.4281 34.5895 25.4281 34.7513C25.4281 34.913 25.3768 35.0706 25.2817 35.2014C25.2083 35.3564 25.0942 35.4886 24.9515 35.5838C24.8088 35.6789 24.6428 35.7335 24.4715 35.7415H22.8961Z" fill="#CFCFCF"/>
<path d="M42.1636 34.7061V32.6356H41.3984C41.3984 32.6356 41.0383 32.6356 40.9483 32.6356L39.1479 34.6161L42.1636 34.7061ZM40.6783 35.7413H38.8328C38.5722 35.7206 38.3226 35.627 38.1126 35.4713C38.0445 35.4081 37.9901 35.3315 37.9529 35.2463C37.9157 35.1611 37.8965 35.0691 37.8965 34.9762C37.8965 34.8832 37.9157 34.7912 37.9529 34.706C37.9901 34.6208 38.0445 34.5442 38.1126 34.481L40.2732 32.0955C40.471 31.905 40.7222 31.7794 40.9933 31.7354C41.4434 31.7354 41.8935 31.7354 42.3887 31.7354C42.5031 31.7347 42.6163 31.7582 42.721 31.8044C42.8257 31.8506 42.9194 31.9185 42.9959 32.0036C43.0724 32.0886 43.1301 32.1889 43.1651 32.2978C43.2001 32.4068 43.2116 32.5219 43.1989 32.6356V34.9311C43.2075 35.0536 43.1881 35.1765 43.1422 35.2904C43.0964 35.4043 43.0253 35.5062 42.9342 35.5886C42.8432 35.671 42.7346 35.7316 42.6167 35.7658C42.4988 35.8001 42.3746 35.8071 42.2536 35.7864H40.6783" fill="#CFCFCF"/>
<path d="M40.9394 38.352V40.2875C40.9394 40.5576 40.9394 40.6926 41.3895 40.6926H43.7751C44.0452 40.6926 44.2252 40.6926 44.2252 40.2875V37.2718C43.2414 37.9092 42.1095 38.2813 40.9394 38.352ZM19.1991 37.2268V40.3325C19.1991 40.5576 19.1991 40.6926 19.6492 40.6926H22.0348C22.3049 40.6926 22.4849 40.6926 22.4849 40.2875V38.397C21.3123 38.2733 20.186 37.8722 19.1991 37.2268ZM24.3304 28.5396H29.8667C29.7268 27.9098 29.3762 27.3465 28.8729 26.9428C28.3697 26.5391 27.7438 26.3191 27.0986 26.3191C26.4534 26.3191 25.8274 26.5391 25.3242 26.9428C24.8209 27.3465 24.4703 27.9098 24.3304 28.5396ZM43.5501 28.5396L42.9649 27.2793C42.3798 25.929 41.7496 24.5787 41.1195 23.1833C40.9339 22.7532 40.6257 22.3873 40.2335 22.1311C39.8413 21.875 39.3824 21.74 38.9139 21.743H24.7805C24.2238 21.7039 23.6699 21.8506 23.2056 22.1601C22.7413 22.4697 22.3929 22.9245 22.2149 23.4534L20.1894 27.9545L19.9193 28.5396H23.2501C23.9253 26.4241 24.9605 25.4339 26.716 25.3889C27.208 25.3061 27.7118 25.3241 28.1967 25.4415C28.6817 25.559 29.1378 25.7735 29.5375 26.0722C29.9372 26.371 30.2721 26.7476 30.5221 27.1794C30.7721 27.6113 30.932 28.0893 30.992 28.5847L43.5501 28.5396ZM31.6672 29.5299H20.4144C19.2892 29.5299 19.1541 29.5299 18.749 30.6552C18.71 30.8331 18.71 31.0174 18.749 31.1953C18.749 32.2305 18.749 33.2658 18.749 34.301C18.8007 34.8729 19.0145 35.418 19.3653 35.8725C19.7161 36.327 20.1894 36.6719 20.7295 36.8667C21.3356 37.158 21.9934 37.3263 22.665 37.3618H40.6694C41.4021 37.3525 42.1241 37.1835 42.7849 36.8667C43.3283 36.6574 43.8042 36.3035 44.1612 35.8434C44.5182 35.3833 44.7426 34.8344 44.8104 34.256C44.8779 33.3421 44.8779 32.4243 44.8104 31.5104C44.7416 31.0306 44.5729 30.5706 44.3152 30.16C44.2439 29.9503 44.1011 29.7724 43.9119 29.6572C43.7227 29.542 43.499 29.497 43.28 29.5299C39.409 29.5299 35.4931 29.5299 31.6222 29.5299M23.3852 38.5321V40.3325C23.3852 41.3228 22.89 41.8179 21.8548 41.8179C21.1503 41.7729 20.4437 41.7729 19.7393 41.8179C19.5186 41.8416 19.2955 41.814 19.0873 41.7373C18.879 41.6606 18.6913 41.5368 18.5388 41.3756C18.3863 41.2144 18.2732 41.0201 18.2081 40.8079C18.1431 40.5958 18.1279 40.3714 18.1639 40.1525C18.1639 39.0272 18.1639 37.8569 18.1639 36.5966C18.2058 36.3131 18.2058 36.0249 18.1639 35.7414C17.9422 35.1583 17.7765 34.5554 17.6688 33.941C17.4672 32.855 17.4672 31.7411 17.6688 30.6552C17.7735 30.3392 17.942 30.0481 18.1639 29.7999C18.9466 28.4749 19.6238 27.0903 20.1894 25.6589C20.6395 24.7587 21.0446 23.7685 21.4947 22.8683C21.7206 22.2924 22.1088 21.7945 22.6122 21.435C23.1155 21.0755 23.7124 20.8697 24.3304 20.8428H39.139C39.7954 20.8651 40.4279 21.0949 40.9455 21.4993C41.4631 21.9037 41.8392 22.4618 42.0197 23.0933C42.6498 24.3986 43.235 25.749 43.8651 27.0993L45.3505 30.025C46.0271 31.9168 46.0271 33.9846 45.3505 35.8764C45.251 36.1049 45.1902 36.3482 45.1704 36.5966C45.1704 37.7669 45.1704 38.8922 45.1704 40.0624C45.1918 40.2568 45.1693 40.4535 45.1045 40.638C45.0397 40.8225 44.9342 40.99 44.796 41.1283C44.6577 41.2666 44.4901 41.372 44.3056 41.4368C44.1212 41.5017 43.9245 41.5242 43.7301 41.5028H41.3445C41.1578 41.5162 40.9705 41.4893 40.7951 41.4239C40.6197 41.3585 40.4605 41.2562 40.3282 41.1238C40.1958 40.9915 40.0935 40.8322 40.0281 40.6569C39.9627 40.4815 39.9358 40.2941 39.9492 40.1075V38.397L23.3852 38.5321Z" fill="#CFCFCF"/>
</g>
<defs>
<clipPath id="clip0_108_198">
<rect width="62.7903" height="41.14" fill="white" transform="translate(0.164062 0.587891)"/>
</clipPath>
</defs>
</svg>
