<svg width="45" height="46" viewBox="0 0 45 46" fill="none" xmlns="http://www.w3.org/2000/svg">
<path d="M22.7009 30.1533C24.6724 30.1533 26.5631 29.3701 27.9571 27.9761C29.3511 26.5821 30.1342 24.6914 30.1342 22.72C30.1342 20.7485 29.3511 18.8578 27.9571 17.4638C26.5631 16.0698 24.6724 15.2866 22.7009 15.2866C20.7295 15.2866 18.8388 16.0698 17.4448 17.4638C16.0507 18.8578 15.2676 20.7485 15.2676 22.72C15.2676 24.6914 16.0507 26.5821 17.4448 27.9761C18.8388 29.3701 20.7295 30.1533 22.7009 30.1533Z" stroke="#505050" stroke-width="2.7875" stroke-linecap="round" stroke-linejoin="round"/>
<path d="M5.97461 30.153V15.2863C5.97461 12.822 6.95355 10.4586 8.69608 8.7161C10.4386 6.97357 12.802 5.99463 15.2663 5.99463H30.1329C32.5972 5.99463 34.9606 6.97357 36.7031 8.7161C38.4457 10.4586 39.4246 12.822 39.4246 15.2863V30.153C39.4246 32.6173 38.4457 34.9806 36.7031 36.7232C34.9606 38.4657 32.5972 39.4446 30.1329 39.4446H15.2663C12.802 39.4446 10.4386 38.4657 8.69608 36.7232C6.95355 34.9806 5.97461 32.6173 5.97461 30.153Z" stroke="#505050" stroke-width="2.7875"/>
<path d="M32.9199 12.5174L32.9384 12.4971" stroke="#505050" stroke-width="2.7875" stroke-linecap="round" stroke-linejoin="round"/>
</svg>
