<svg width="586" height="111" viewBox="0 0 586 111" fill="none" xmlns="http://www.w3.org/2000/svg">
<path d="M1.82749 44.3051V0.151218H6.89046V44.3051H1.82749ZM36.7987 39.0655V31.942C34.6204 28.8218 31.2648 27.1734 27.9679 27.1734C21.7275 27.1734 18.9606 31.3533 18.9606 35.4154C18.9606 39.2421 21.4332 42.8921 25.7308 42.8921C28.3212 42.8921 31.7357 41.4792 36.0922 37.888C32.2067 42.48 27.1437 44.9526 22.905 44.9526C17.3121 44.9526 14.0153 40.5961 14.0153 36.1219C14.0153 31.3533 17.7831 26.408 26.3784 26.408C30.3228 26.408 34.3261 27.8798 36.7987 31.1766V29.7637C36.7987 22.4048 36.8576 15.3401 28.5567 15.3401C21.492 15.3401 18.1952 20.1676 17.4888 22.758C18.7251 17.7539 23.4348 14.2216 28.7333 14.2216C40.0366 14.2216 41.8028 21.4628 41.8028 29.7637V38.8888C41.8028 42.1268 42.8036 43.3042 44.1577 43.3042C45.2762 43.3042 46.6303 42.48 47.69 41.4203C46.4537 43.5397 44.1577 44.6583 41.9794 44.6583C39.2713 44.6583 36.7987 42.951 36.7987 39.0655ZM17.4888 22.758C17.4888 22.8757 17.4299 22.9935 17.4299 23.1112C17.4299 22.9935 17.4888 22.8757 17.4888 22.758ZM74.3837 39.0655V33.1783C74.3249 27.0556 75.0313 15.2813 65.6118 15.2813C60.49 15.2813 58.665 16.8708 57.8408 17.8128C59.548 15.2813 63.1981 14.2804 66.1417 14.2804C79.9177 14.2804 79.4467 25.1717 79.4467 33.6493V38.8888C79.4467 42.1268 80.4475 43.3042 81.8016 43.3042C82.9201 43.3042 84.2742 42.48 85.3339 41.4203C84.0976 43.5397 81.7427 44.6583 79.5644 44.6583C76.8563 44.6583 74.3837 42.951 74.3837 39.0655ZM52.2479 44.3051V14.8692H57.3109V44.3051H52.2479ZM101.106 15.1047C95.5132 15.1047 92.9817 20.8152 92.9817 27.1734C92.9817 35.0033 96.8672 43.7163 103.637 43.7163C107.346 43.7163 109.819 42.3623 111.173 39.8897C109.819 43.3042 106.581 45.1881 101.577 45.1881C91.6276 45.1881 87.4478 37.4171 87.4478 29.7049C87.4478 21.9338 91.6865 14.2216 101.577 14.2216C106.64 14.2216 109.937 15.9877 111.938 18.5781V0.151218H117.001V44.3051H111.938V27.7621C110.82 21.2273 106.993 15.1047 101.106 15.1047ZM151.547 43.8341C157.846 43.8341 162.32 40.2429 165.617 35.592C162.497 41.4792 157.846 45.1881 148.544 45.1881C132.354 45.1881 124.289 34.4146 124.289 23.6999C124.289 9.92393 135.004 2.56496 147.249 2.56496C155.197 2.56496 157.964 5.6263 157.964 8.21665C157.964 10.4538 155.903 12.3377 153.313 11.5723C153.548 10.7481 153.666 10.0417 153.666 9.39409C153.666 4.80209 148.014 3.56578 145.483 3.56578C134.709 3.56578 129.823 11.3369 129.823 20.0499C129.823 31.1766 137.771 43.8341 151.547 43.8341ZM181.979 15.4579C176.504 15.4579 174.09 20.1676 174.09 25.7604C174.09 33.8847 179.153 43.893 187.16 43.893C192.635 43.893 194.99 39.2421 194.99 33.6493C194.99 25.525 189.927 15.4579 181.979 15.4579ZM169.086 29.7049C169.086 21.6983 174.208 14.2216 184.57 14.2216C195.049 14.2216 199.994 21.7572 199.994 29.7049C199.994 37.7114 194.99 45.1881 184.57 45.1881C174.09 45.1881 169.086 37.6525 169.086 29.7049ZM243.683 3.09481L264.583 44.3051H258.637L256.282 39.7131C252.867 33.9436 245.096 28.3508 238.149 28.3508C234.911 28.3508 231.85 29.646 229.554 32.7073C231.556 29.0573 234.735 27.6443 238.326 27.6443C243.683 27.6443 249.924 31 254.104 35.4154L240.681 8.98199L227.847 34.3557C226.493 37.0638 226.022 39.2421 226.022 40.8316C226.022 42.5978 226.611 43.6575 227.14 43.8341C227.376 43.893 227.376 44.3051 227.376 44.3051H221.783L242.683 3.09481H243.683ZM277.118 21.2273C278.884 16.8119 282.946 13.3974 286.773 13.3974C289.599 13.3974 290.953 14.928 290.953 16.4587C290.953 17.9894 289.658 19.4612 287.126 19.4612C287.185 16.8119 286.008 15.6345 284.359 15.6345C282.181 15.6345 279.237 17.6361 277.118 21.2273ZM271.407 44.3051V14.8692H276.47V44.3051H271.407ZM302.299 21.2273C304.066 16.8119 308.128 13.3974 311.954 13.3974C314.78 13.3974 316.134 14.928 316.134 16.4587C316.134 17.9894 314.839 19.4612 312.308 19.4612C312.366 16.8119 311.189 15.6345 309.541 15.6345C307.362 15.6345 304.419 17.6361 302.299 21.2273ZM296.589 44.3051V14.8692H301.652V44.3051H296.589ZM331.228 15.4579C325.753 15.4579 323.34 20.1676 323.34 25.7604C323.34 33.8847 328.403 43.893 336.409 43.893C341.884 43.893 344.239 39.2421 344.239 33.6493C344.239 25.525 339.176 15.4579 331.228 15.4579ZM318.335 29.7049C318.335 21.6983 323.457 14.2216 333.819 14.2216C344.298 14.2216 349.243 21.7572 349.243 29.7049C349.243 37.7114 344.239 45.1881 333.819 45.1881C323.34 45.1881 318.335 37.6525 318.335 29.7049ZM365.934 47.1309C363.403 52.606 360.871 56.1972 356.456 56.1972C351.923 56.1972 350.745 51.4874 350.863 50.1334C351.628 53.6068 354.101 53.8423 356.103 53.8423C359.694 53.8423 363.52 50.4277 365.11 46.8365L366.229 44.3051H366.17L353.512 14.8692H358.929L368.996 38.0646L376.119 22.4048C376.767 20.9918 377.002 19.6967 377.002 18.637C377.002 16.341 376.001 14.8692 376.001 14.8692H380.534L365.934 47.1309ZM396.597 15.4579C391.122 15.4579 388.708 20.1676 388.708 25.7604C388.708 33.8847 393.771 43.893 401.778 43.893C407.253 43.893 409.607 39.2421 409.607 33.6493C409.607 25.525 404.544 15.4579 396.597 15.4579ZM383.704 29.7049C383.704 21.6983 388.826 14.2216 399.187 14.2216C409.666 14.2216 414.612 21.7572 414.612 29.7049C414.612 37.7114 409.607 45.1881 399.187 45.1881C388.708 45.1881 383.704 37.6525 383.704 29.7049ZM13.6607 80.1047C8.06789 80.1047 5.53641 85.8152 5.53641 92.1734C5.53641 100.003 9.42195 108.716 16.1922 108.716C19.9011 108.716 22.3737 107.362 23.7278 104.89C22.3737 108.304 19.1358 110.188 14.1317 110.188C4.18236 110.188 0.00246077 102.417 0.00246077 94.7049C0.00246077 86.9338 4.24123 79.2216 14.1317 79.2216C19.1947 79.2216 22.4915 80.9877 24.4931 83.5781V65.1512H29.5561V109.305H24.4931V92.7621C23.3746 86.2273 19.5479 80.1047 13.6607 80.1047ZM39.5519 77.1022C41.0237 76.3369 41.6124 75.336 41.6124 74.5707C41.6124 73.3344 40.1995 72.4513 38.4922 72.9223C38.2567 70.3908 39.964 69.2134 41.6713 69.2134C43.5552 69.2134 44.7326 70.5086 44.7326 72.0981C44.7326 73.9231 43.2019 76.1014 39.5519 77.1022ZM39.1398 79.8692H44.2027V109.305H39.1398V79.8692ZM51.5015 100.533C51.2071 106.361 57.212 109.011 62.9815 109.011C68.2211 109.011 73.3429 106.774 73.3429 102.888C73.3429 95.1758 52.5612 98.7081 52.5612 87.5814C52.5612 81.8708 57.9185 78.8095 63.4524 78.8095C68.6332 78.8095 73.8727 81.3998 75.2268 87.0515C73.8727 82.2829 68.9275 80.0458 64.3944 80.0458C59.979 80.0458 55.9168 82.1652 55.9168 86.0507C55.9168 93.8218 77.3462 89.8774 77.3462 101.122C77.3462 107.421 71.0469 110.365 64.6887 110.365C57.8596 110.365 50.8539 106.95 51.5015 100.533ZM86.1521 70.744C89.5078 70.744 91.8627 72.8634 91.8627 74.9828C91.8627 77.1611 89.4489 79.3393 83.1496 79.4571C87.3884 79.2216 89.5667 76.749 89.5667 74.453C89.5667 72.8046 88.4481 71.2739 86.1521 70.744ZM85.1513 102.594V80.8111H80.5593V79.8692H100.164V80.8111H90.1554V102.417C90.1554 106.479 91.9215 108.069 94.1587 108.069C97.2789 108.069 101.223 105.066 102.872 101.357C100.517 107.421 96.2192 109.599 92.5103 109.599C88.4481 109.599 85.1513 106.891 85.1513 102.594ZM113.438 86.2273C115.204 81.8119 119.267 78.3974 123.093 78.3974C125.919 78.3974 127.273 79.928 127.273 81.4587C127.273 82.9894 125.978 84.4612 123.446 84.4612C123.505 81.8119 122.328 80.6345 120.679 80.6345C118.501 80.6345 115.558 82.6361 113.438 86.2273ZM107.728 109.305V79.8692H112.791V109.305H107.728ZM133.321 77.1022C134.793 76.3369 135.382 75.336 135.382 74.5707C135.382 73.3344 133.969 72.4513 132.262 72.9223C132.026 70.3908 133.733 69.2134 135.441 69.2134C137.325 69.2134 138.502 70.5086 138.502 72.0981C138.502 73.9231 136.971 76.1014 133.321 77.1022ZM132.909 79.8692H137.972V109.305H132.909V79.8692ZM149.451 70.744C152.806 70.744 155.161 72.8634 155.161 74.9828C155.161 77.1611 152.748 79.3393 146.448 79.4571C150.687 79.2216 152.865 76.749 152.865 74.453C152.865 72.8046 151.747 71.2739 149.451 70.744ZM148.45 102.594V80.8111H143.858V79.8692H163.462V80.8111H153.454V102.417C153.454 106.479 155.22 108.069 157.457 108.069C160.578 108.069 164.522 105.066 166.17 101.357C163.815 107.421 159.518 109.599 155.809 109.599C151.747 109.599 148.45 106.891 148.45 102.594ZM182.094 80.4579C176.619 80.4579 174.205 85.1676 174.205 90.7604C174.205 98.8847 179.268 108.893 187.275 108.893C192.75 108.893 195.105 104.242 195.105 98.6493C195.105 90.525 190.042 80.4579 182.094 80.4579ZM169.201 94.7049C169.201 86.6983 174.323 79.2216 184.685 79.2216C195.164 79.2216 200.109 86.7572 200.109 94.7049C200.109 102.711 195.105 110.188 184.685 110.188C174.205 110.188 169.201 102.653 169.201 94.7049ZM236.557 80.1047C230.964 80.1047 228.433 85.8152 228.433 92.1734C228.433 100.003 232.318 108.716 239.089 108.716C242.797 108.716 245.27 107.362 246.624 104.89C245.27 108.304 242.032 110.188 237.028 110.188C227.079 110.188 222.899 102.417 222.899 94.7049C222.899 86.9338 227.138 79.2216 237.028 79.2216C242.091 79.2216 245.388 80.9877 247.389 83.5781V65.1512H252.452V109.305H247.389V92.7621C246.271 86.2273 242.444 80.1047 236.557 80.1047ZM273.134 79.3982C279.434 79.3982 283.319 82.8128 283.319 86.8749C283.319 91.3492 278.609 96.6476 267.365 99.1202C275.43 95.8823 278.374 91.1725 278.374 87.287C278.374 83.4603 275.489 80.4579 271.839 80.4579C266.364 80.4579 263.95 85.1088 263.95 90.5838C263.95 98.5315 269.013 108.304 276.961 108.304C284.202 108.304 288.441 100.71 288.735 98.4726C288.147 104.124 282.142 110.188 274.43 110.188C263.95 110.188 258.946 102.653 258.946 94.7049C258.946 84.2257 266.129 79.3982 273.134 79.3982ZM329.231 68.0948L350.131 109.305H344.185L341.83 104.713C338.415 98.9436 330.644 93.3508 323.697 93.3508C320.459 93.3508 317.398 94.646 315.102 97.7073C317.104 94.0573 320.283 92.6443 323.874 92.6443C329.231 92.6443 335.472 96 339.652 100.415L326.229 73.982L313.395 99.3557C312.041 102.064 311.57 104.242 311.57 105.832C311.57 107.598 312.159 108.657 312.688 108.834C312.924 108.893 312.924 109.305 312.924 109.305H307.331L328.231 68.0948H329.231ZM362.666 86.2273C364.432 81.8119 368.494 78.3974 372.321 78.3974C375.147 78.3974 376.501 79.928 376.501 81.4587C376.501 82.9894 375.206 84.4612 372.674 84.4612C372.733 81.8119 371.556 80.6345 369.907 80.6345C367.729 80.6345 364.785 82.6361 362.666 86.2273ZM356.955 109.305V79.8692H362.018V109.305H356.955ZM398.883 104.065V96.942C396.705 93.8218 393.349 92.1734 390.052 92.1734C383.812 92.1734 381.045 96.3533 381.045 100.415C381.045 104.242 383.518 107.892 387.815 107.892C390.406 107.892 393.82 106.479 398.177 102.888C394.291 107.48 389.228 109.953 384.989 109.953C379.397 109.953 376.1 105.596 376.1 101.122C376.1 96.3533 379.868 91.408 388.463 91.408C392.407 91.408 396.411 92.8798 398.883 96.1766V94.7637C398.883 87.4048 398.942 80.3401 390.641 80.3401C383.576 80.3401 380.28 85.1676 379.573 87.758C380.809 82.7539 385.519 79.2216 390.818 79.2216C402.121 79.2216 403.887 86.4628 403.887 94.7637V103.889C403.887 107.127 404.888 108.304 406.242 108.304C407.361 108.304 408.715 107.48 409.774 106.42C408.538 108.54 406.242 109.658 404.064 109.658C401.356 109.658 398.883 107.951 398.883 104.065ZM379.573 87.758C379.573 87.8757 379.514 87.9935 379.514 88.1112C379.514 87.9935 379.573 87.8757 379.573 87.758ZM436.468 104.065V98.1783C436.409 92.0556 437.116 80.2813 427.696 80.2813C422.574 80.2813 420.749 81.8708 419.925 82.8128C421.632 80.2813 425.283 79.2804 428.226 79.2804C442.002 79.2804 441.531 90.1717 441.531 98.6493V103.889C441.531 107.127 442.532 108.304 443.886 108.304C445.005 108.304 446.359 107.48 447.418 106.42C446.182 108.54 443.827 109.658 441.649 109.658C438.941 109.658 436.468 107.951 436.468 104.065ZM414.332 109.305V79.8692H419.395V109.305H414.332ZM451.181 84.0491L452.005 79.8692H474.553L455.419 108.363H466.84C468.607 108.363 472.845 107.833 474.729 104.949L473.552 109.305H448.531L467.724 80.8111H457.009C454.065 80.8111 451.946 82.9894 451.181 84.0491ZM501.851 104.065V96.942C499.673 93.8218 496.317 92.1734 493.02 92.1734C486.78 92.1734 484.013 96.3533 484.013 100.415C484.013 104.242 486.486 107.892 490.783 107.892C493.374 107.892 496.788 106.479 501.145 102.888C497.259 107.48 492.196 109.953 487.957 109.953C482.365 109.953 479.068 105.596 479.068 101.122C479.068 96.3533 482.836 91.408 491.431 91.408C495.375 91.408 499.379 92.8798 501.851 96.1766V94.7637C501.851 87.4048 501.91 80.3401 493.609 80.3401C486.545 80.3401 483.248 85.1676 482.541 87.758C483.778 82.7539 488.487 79.2216 493.786 79.2216C505.089 79.2216 506.855 86.4628 506.855 94.7637V103.889C506.855 107.127 507.856 108.304 509.21 108.304C510.329 108.304 511.683 107.48 512.743 106.42C511.506 108.54 509.21 109.658 507.032 109.658C504.324 109.658 501.851 107.951 501.851 104.065ZM482.541 87.758C482.541 87.8757 482.482 87.9935 482.482 88.1112C482.482 87.9935 482.541 87.8757 482.541 87.758ZM539.436 104.065V98.1783C539.377 92.0556 540.084 80.2813 530.664 80.2813C525.543 80.2813 523.718 81.8708 522.893 82.8128C524.601 80.2813 528.251 79.2804 531.194 79.2804C544.97 79.2804 544.499 90.1717 544.499 98.6493V103.889C544.499 107.127 545.5 108.304 546.854 108.304C547.973 108.304 549.327 107.48 550.386 106.42C549.15 108.54 546.795 109.658 544.617 109.658C541.909 109.658 539.436 107.951 539.436 104.065ZM517.301 109.305V79.8692H522.363V109.305H517.301ZM574.636 104.065V96.942C572.458 93.8218 569.102 92.1734 565.805 92.1734C559.565 92.1734 556.798 96.3533 556.798 100.415C556.798 104.242 559.271 107.892 563.568 107.892C566.159 107.892 569.573 106.479 573.93 102.888C570.044 107.48 564.981 109.953 560.742 109.953C555.149 109.953 551.853 105.596 551.853 101.122C551.853 96.3533 555.62 91.408 564.216 91.408C568.16 91.408 572.163 92.8798 574.636 96.1766V94.7637C574.636 87.4048 574.695 80.3401 566.394 80.3401C559.329 80.3401 556.033 85.1676 555.326 87.758C556.562 82.7539 561.272 79.2216 566.571 79.2216C577.874 79.2216 579.64 86.4628 579.64 94.7637V103.889C579.64 107.127 580.641 108.304 581.995 108.304C583.114 108.304 584.468 107.48 585.527 106.42C584.291 108.54 581.995 109.658 579.817 109.658C577.109 109.658 574.636 107.951 574.636 104.065ZM555.326 87.758C555.326 87.8757 555.267 87.9935 555.267 88.1112C555.267 87.9935 555.326 87.8757 555.326 87.758Z" fill="white"/>
</svg>
