<svg width="51" height="52" viewBox="0 0 51 52" fill="none" xmlns="http://www.w3.org/2000/svg">
<path d="M38.8902 7.42334H11.8664C10.4764 7.42723 9.14453 7.98308 8.16169 8.96943C7.17884 9.95578 6.62497 11.2924 6.62109 12.6873V39.8075C6.62497 41.2024 7.17884 42.5391 8.16169 43.5254C9.14453 44.5118 10.4764 45.0676 11.8664 45.0715H38.8902C40.2813 45.0715 41.6155 44.5169 42.5991 43.5297C43.5828 42.5425 44.1354 41.2036 44.1354 39.8075V12.6873C44.1354 11.2912 43.5828 9.95232 42.5991 8.96513C41.6155 7.97794 40.2813 7.42334 38.8902 7.42334ZM42.0373 39.8075C42.0318 40.6435 41.6985 41.4436 41.1095 42.0347C40.5204 42.6258 39.7231 42.9604 38.8902 42.9659H11.8664C11.0334 42.9604 10.2361 42.6258 9.64707 42.0347C9.05805 41.4436 8.72471 40.6435 8.71921 39.8075V12.6873C8.72471 11.8514 9.05805 11.0512 9.64707 10.4601C10.2361 9.86899 11.0334 9.53446 11.8664 9.52894H38.8902C39.7231 9.53446 40.5204 9.86899 41.1095 10.4601C41.6985 11.0512 42.0318 11.8514 42.0373 12.6873V39.8075Z" fill="#505050"/>
<path d="M13.5784 23.6115C13.5784 23.053 13.7994 22.5175 14.1929 22.1226C14.5864 21.7277 15.12 21.5059 15.6765 21.5059C16.2329 21.5059 16.7666 21.7277 17.1601 22.1226C17.5536 22.5175 17.7746 23.053 17.7746 23.6115V37.2979C17.7746 37.8563 17.5536 38.3919 17.1601 38.7868C16.7666 39.1816 16.2329 39.4035 15.6765 39.4035C15.12 39.4035 14.5864 39.1816 14.1929 38.7868C13.7994 38.3919 13.5784 37.8563 13.5784 37.2979V23.6115Z" fill="#505050"/>
<path d="M15.6765 17.2866C16.8352 17.2866 17.7746 16.3439 17.7746 15.181C17.7746 14.0181 16.8352 13.0754 15.6765 13.0754C14.5177 13.0754 13.5784 14.0181 13.5784 15.181C13.5784 16.3439 14.5177 17.2866 15.6765 17.2866Z" fill="#505050"/>
<path d="M37.1693 29.1323V37.302C37.1693 37.8605 36.9482 38.396 36.5547 38.7909C36.1613 39.1858 35.6276 39.4076 35.0712 39.4076C34.5147 39.4076 33.981 39.1858 33.5876 38.7909C33.1941 38.396 32.973 37.8605 32.973 37.302V29.1323C32.973 28.2304 32.616 27.3655 31.9806 26.7277C31.3451 26.09 30.4833 25.7318 29.5846 25.7318C28.6859 25.7318 27.824 26.09 27.1886 26.7277C26.5531 27.3655 26.1961 28.2304 26.1961 29.1323V37.302C26.1961 37.8605 25.9751 38.396 25.5816 38.7909C25.1881 39.1858 24.6545 39.4076 24.098 39.4076C23.5415 39.4076 23.0079 39.1858 22.6144 38.7909C22.2209 38.396 21.9999 37.8605 21.9999 37.302V23.6156C22.0085 23.0599 22.2324 22.5294 22.624 22.1363C23.0156 21.7433 23.5442 21.5187 24.098 21.51C24.4534 21.5003 24.8048 21.5871 25.115 21.7613C25.4252 21.9355 25.6828 22.1906 25.8604 22.4997C27.0141 21.8435 28.3192 21.5027 29.6453 21.5115C30.9714 21.5204 32.2719 21.8784 33.4168 22.5499C34.5617 23.2214 35.5109 24.1828 36.1694 25.3379C36.8279 26.4931 37.1727 27.8015 37.1693 29.1323Z" fill="#505050"/>
</svg>
