<svg width="57" height="41" viewBox="0 0 57 41" fill="none" xmlns="http://www.w3.org/2000/svg">
<path d="M12.9702 32.9506C14.2594 32.9506 15.469 32.4138 16.3126 31.4821C17.1562 32.4138 18.3499 32.9506 19.655 32.9506C20.9443 32.9506 22.1539 32.4138 22.9975 31.4821C23.8411 32.4138 25.0348 32.9506 26.3399 32.9506C27.6451 32.9506 28.8388 32.4138 29.6824 31.4821C30.5259 32.4138 31.7197 32.9506 33.0248 32.9506C34.33 32.9506 35.5237 32.4138 36.3672 31.4821C37.2108 32.4138 38.4045 32.9506 39.7097 32.9506C40.9989 32.9506 42.2086 32.4138 43.0521 31.4821C43.8957 32.4138 45.0894 32.9506 46.3946 32.9506C47.9862 32.9506 49.4823 32.098 50.2782 30.7242C50.4373 30.4558 50.3418 30.1242 50.0712 29.9663C49.8007 29.8084 49.4664 29.9031 49.3073 30.1715C48.7024 31.1979 47.5883 31.8453 46.3946 31.8453C45.2168 31.8453 44.1504 31.2611 43.5296 30.2663C43.4341 30.1084 43.2431 29.9978 43.0521 29.9978C42.8611 29.9978 42.686 30.0926 42.5746 30.2663C41.9539 31.2611 40.8875 31.8453 39.7097 31.8453C38.5319 31.8453 37.4655 31.2611 36.8447 30.2663C36.7492 30.1084 36.5582 29.9978 36.3672 29.9978C36.1762 29.9978 36.0012 30.0926 35.8898 30.2663C35.269 31.2611 34.2026 31.8453 33.0248 31.8453C31.847 31.8453 30.7806 31.2611 30.1599 30.2663C30.0644 30.1084 29.8734 29.9978 29.6824 29.9978C29.4914 29.9978 29.3163 30.0926 29.2049 30.2663C28.5841 31.2611 27.5177 31.8453 26.3399 31.8453C25.1621 31.8453 24.0957 31.2611 23.475 30.2663C23.3795 30.1084 23.1885 29.9978 22.9975 29.9978C22.8065 29.9978 22.6155 30.0926 22.52 30.2663C21.8993 31.2611 20.8329 31.8453 19.655 31.8453C18.4772 31.8453 17.4108 31.2611 16.7901 30.2663C16.6787 30.1084 16.5036 29.9978 16.3126 29.9978C16.1216 29.9978 15.9306 30.0926 15.8351 30.2663C15.2144 31.2611 14.148 31.8453 12.9702 31.8453C11.7924 31.8453 10.726 31.2611 10.1052 30.2663C9.94606 30.0136 9.5959 29.9347 9.34124 30.0926C9.08658 30.2505 9.00699 30.5979 9.16616 30.8505C9.97789 32.1611 11.4104 32.9506 12.9702 32.9506Z" fill="#CFCFCF"/>
<path d="M50.0392 35.2087C49.7686 35.0508 49.4343 35.1455 49.2752 35.414C48.6703 36.4404 47.5562 37.0878 46.3625 37.0878C45.1847 37.0878 44.1183 36.5035 43.4975 35.5087C43.402 35.3508 43.211 35.2403 43.02 35.2403C42.829 35.2403 42.654 35.335 42.5425 35.5087C41.9218 36.5035 40.8554 37.0878 39.6776 37.0878C38.4998 37.0878 37.4334 36.5035 36.8126 35.5087C36.7171 35.3508 36.5261 35.2403 36.3351 35.2403C36.1442 35.2403 35.9532 35.335 35.8577 35.5087C35.2369 36.5035 34.1705 37.0878 32.9927 37.0878C31.8149 37.0878 30.7485 36.5035 30.1278 35.5087C30.0323 35.3508 29.8413 35.2403 29.6503 35.2403C29.4593 35.2403 29.2683 35.335 29.1728 35.5087C28.552 36.5035 27.4856 37.0878 26.3078 37.0878C25.13 37.0878 24.0636 36.5035 23.4429 35.5087C23.3474 35.3508 23.1564 35.2403 22.9654 35.2403C22.7744 35.2403 22.5993 35.335 22.4879 35.5087C21.8672 36.5035 20.8008 37.0878 19.623 37.0878C18.4451 37.0878 17.3787 36.5035 16.758 35.5087C16.6625 35.3508 16.4715 35.2403 16.2805 35.2403C16.0895 35.2403 15.9144 35.335 15.803 35.5087C15.1823 36.5035 14.1159 37.0878 12.9381 37.0878C11.7603 37.0878 10.6939 36.5035 10.0731 35.5087C9.91396 35.2561 9.5638 35.1771 9.30914 35.335C9.03856 35.4929 8.95898 35.8403 9.13406 36.093C9.96171 37.4036 11.3783 38.1931 12.9381 38.1931C14.2273 38.1931 15.4369 37.6562 16.2805 36.7246C17.1241 37.6562 18.3178 38.1931 19.623 38.1931C20.9122 38.1931 22.1218 37.6562 22.9654 36.7246C23.809 37.6562 25.0027 38.1931 26.3078 38.1931C27.5971 38.1931 28.8067 37.6562 29.6503 36.7246C30.4938 37.6562 31.6876 38.1931 32.9927 38.1931C34.2819 38.1931 35.4916 37.6562 36.3351 36.7246C37.1787 37.6562 38.3724 38.1931 39.6776 38.1931C40.9668 38.1931 42.1765 37.6562 43.02 36.7246C43.8636 37.6562 45.0573 38.1931 46.3625 38.1931C47.9541 38.1931 49.4503 37.3404 50.2461 35.9666C50.3893 35.714 50.2938 35.3666 50.0392 35.2087Z" fill="#CFCFCF"/>
<path d="M24.4626 14.2549H15.1515V10.2125H24.4626V14.2549ZM15.1675 20.5079H24.4785V24.5502H15.1675V20.5079ZM24.4626 19.4025H15.1515V15.3602H24.4626V19.4025ZM14.6104 28.5294C14.9128 28.5294 15.1675 28.2767 15.1675 27.9767V25.6713H24.4785V27.9767C24.4785 28.2767 24.7332 28.5294 25.0356 28.5294C25.338 28.5294 25.5927 28.2767 25.5927 27.9767V5.8702C25.5927 4.57539 26.6591 3.53322 27.9642 3.53322C29.2694 3.53322 30.3199 4.59118 30.3199 5.8702C30.3199 6.17021 30.5745 6.42286 30.8769 6.42286C31.1793 6.42286 31.434 6.17021 31.434 5.8702C31.434 3.95956 29.8742 2.41211 27.9483 2.41211C26.0224 2.41211 24.4626 3.95956 24.4626 5.8702V9.10722H15.1515V5.8702C15.1515 4.57539 16.2179 3.53322 17.5072 3.53322C18.8123 3.53322 19.8787 4.59118 19.8787 5.8702C19.8787 6.17021 20.1334 6.42286 20.4358 6.42286C20.7382 6.42286 20.9929 6.17021 20.9929 5.8702C20.9929 3.95956 19.4331 2.41211 17.5072 2.41211C15.5813 2.41211 14.0215 3.95956 14.0215 5.8702V27.9609C14.0374 28.2767 14.2921 28.5294 14.6104 28.5294Z" fill="#CFCFCF"/>
</svg>
