<svg width="444" height="228" viewBox="0 0 444 228" fill="none" xmlns="http://www.w3.org/2000/svg">
<path d="M3.64 43.26C2.73 52.08 11.97 56.07 21 56.07C29.4 56.07 37.59 52.71 37.59 46.48C37.59 33.74 3.99 36.4 3.99 18.97C3.99 10.08 12.46 6.02 21 6.02C30.1 6.02 39.34 10.5 38.99 18.55C37.52 10.99 30.45 7.7 23.59 7.7C16.31 7.7 9.24 11.34 9.24 17.29C9.24 30.1 43.68 25.41 43.68 43.54C43.68 53.2 33.32 57.61 23.1 57.61C13.09 57.61 3.29 53.34 3.29 45.78C3.29 44.94 3.43 44.17 3.64 43.26ZM53.2613 17.71C55.0113 16.8 55.7113 15.61 55.7113 14.7C55.7113 13.23 54.0313 12.18 52.0013 12.74C51.7213 9.73 53.7513 8.33 55.7812 8.33C58.0213 8.33 59.4213 9.87 59.4213 11.76C59.4213 13.93 57.6013 16.52 53.2613 17.71ZM52.7713 21H58.7913V56H52.7713V21ZM85.0396 17.78C88.2596 17.78 91.0129 18.48 93.2996 19.88C95.6329 21.28 97.4063 23.2633 98.6196 25.83C99.8796 28.35 100.51 31.3133 100.51 34.72V38.43H74.8196C74.9129 42.6767 75.9863 45.92 78.0396 48.16C80.1396 50.3533 83.0563 51.45 86.7896 51.45C89.1696 51.45 91.2696 51.24 93.0896 50.82C94.9563 50.3533 96.8696 49.7 98.8296 48.86V54.25C96.9163 55.09 95.0263 55.6967 93.1596 56.07C91.2929 56.49 89.0763 56.7 86.5096 56.7C82.9629 56.7 79.8129 55.9767 77.0596 54.53C74.3529 53.0833 72.2296 50.9367 70.6896 48.09C69.1963 45.1967 68.4496 41.6733 68.4496 37.52C68.4496 33.4133 69.1263 29.89 70.4796 26.95C71.8796 24.01 73.8163 21.7467 76.2896 20.16C78.8096 18.5733 81.7263 17.78 85.0396 17.78ZM84.9696 22.82C82.0296 22.82 79.6963 23.7767 77.9696 25.69C76.2896 27.5567 75.2863 30.17 74.9596 33.53H94.0696C94.0696 31.3833 93.7429 29.5167 93.0896 27.93C92.4363 26.3433 91.4329 25.1067 90.0796 24.22C88.7729 23.2867 87.0696 22.82 84.9696 22.82ZM94.9096 3.08C94.4896 3.73333 93.8829 4.52666 93.0896 5.46C92.2963 6.39333 91.4096 7.37333 90.4296 8.4C89.4963 9.38 88.5396 10.3367 87.5596 11.27C86.6263 12.1567 85.7396 12.9267 84.8996 13.58H80.8396V12.74C81.5396 11.8533 82.2863 10.8033 83.0796 9.59C83.9196 8.37667 84.7363 7.14 85.5296 5.88C86.3229 4.57333 86.9763 3.40667 87.4896 2.38H94.9096V3.08ZM136.171 49.77V42.77C136.101 35.49 136.941 21.49 125.741 21.49C119.651 21.49 117.481 23.38 116.501 24.5C118.531 21.49 122.871 20.3 126.371 20.3C142.751 20.3 142.191 33.25 142.191 43.33V49.56C142.191 53.41 143.381 54.81 144.991 54.81C146.321 54.81 147.931 53.83 149.191 52.57C147.721 55.09 144.921 56.42 142.331 56.42C139.111 56.42 136.171 54.39 136.171 49.77ZM109.851 56V21H115.871V56H109.851ZM155.975 10.15C159.965 10.15 162.765 12.67 162.765 15.19C162.765 17.78 159.895 20.37 152.405 20.51C157.445 20.23 160.035 17.29 160.035 14.56C160.035 12.6 158.705 10.78 155.975 10.15ZM154.785 48.02V22.12H149.325V21H172.635V22.12H160.735V47.81C160.735 52.64 162.835 54.53 165.495 54.53C169.205 54.53 173.895 50.96 175.855 46.55C173.055 53.76 167.945 56.35 163.535 56.35C158.705 56.35 154.785 53.13 154.785 48.02ZM196.329 20.44C203.819 20.44 208.439 24.5 208.439 29.33C208.439 34.65 202.839 40.95 189.469 43.89C199.059 40.04 202.559 34.44 202.559 29.82C202.559 25.27 199.129 21.7 194.789 21.7C188.279 21.7 185.409 27.23 185.409 33.74C185.409 43.19 191.429 54.81 200.879 54.81C209.489 54.81 214.529 45.78 214.879 43.12C214.179 49.84 207.039 57.05 197.869 57.05C185.409 57.05 179.459 48.09 179.459 38.64C179.459 26.18 187.999 20.44 196.329 20.44ZM222.488 10.15C226.478 10.15 229.278 12.67 229.278 15.19C229.278 17.78 226.408 20.37 218.918 20.51C223.958 20.23 226.548 17.29 226.548 14.56C226.548 12.6 225.218 10.78 222.488 10.15ZM221.298 48.02V22.12H215.838V21H239.148V22.12H227.248V47.81C227.248 52.64 229.348 54.53 232.008 54.53C235.718 54.53 240.408 50.96 242.368 46.55C239.568 53.76 234.458 56.35 230.048 56.35C225.218 56.35 221.298 53.13 221.298 48.02ZM262.842 20.44C270.332 20.44 274.952 24.5 274.952 29.33C274.952 34.65 269.352 40.95 255.982 43.89C265.572 40.04 269.072 34.44 269.072 29.82C269.072 25.27 265.642 21.7 261.302 21.7C254.792 21.7 251.922 27.23 251.922 33.74C251.922 43.19 257.942 54.81 267.392 54.81C276.002 54.81 281.042 45.78 281.392 43.12C280.692 49.84 273.552 57.05 264.382 57.05C251.922 57.05 245.972 48.09 245.972 38.64C245.972 26.18 254.512 20.44 262.842 20.44ZM321.563 20.44C329.053 20.44 333.673 24.5 333.673 29.33C333.673 34.65 328.073 40.95 314.703 43.89C324.293 40.04 327.793 34.44 327.793 29.82C327.793 25.27 324.363 21.7 320.023 21.7C313.513 21.7 310.643 27.23 310.643 33.74C310.643 43.19 316.663 54.81 326.113 54.81C334.723 54.81 339.763 45.78 340.113 43.12C339.413 49.84 332.273 57.05 323.103 57.05C310.643 57.05 304.693 48.09 304.693 38.64C304.693 26.18 313.233 20.44 321.563 20.44ZM371.943 49.77V42.77C371.873 35.49 372.713 21.49 361.513 21.49C355.423 21.49 353.253 23.38 352.273 24.5C354.303 21.49 358.643 20.3 362.143 20.3C378.523 20.3 377.963 33.25 377.963 43.33V49.56C377.963 53.41 379.153 54.81 380.763 54.81C382.093 54.81 383.703 53.83 384.963 52.57C383.493 55.09 380.693 56.42 378.103 56.42C374.883 56.42 371.943 54.39 371.943 49.77ZM345.623 56V21H351.643V56H345.623ZM3.57 115.64C3.57 104.09 12.25 97.3 20.93 97.3C28.91 97.3 32.34 101.01 32.34 104.02C32.34 106.33 30.38 108.22 27.02 107.94C27.44 107.38 27.65 106.54 27.65 105.56C27.65 102.69 25.55 98.7 18.9 98.7C12.25 98.7 9.24 104.44 9.24 111.09C9.24 120.47 15.26 131.81 25.62 131.81C32.83 131.81 38.64 124.11 38.99 120.05C38.71 126.84 30.94 134.05 21.98 134.05C9.52 134.05 3.57 125.09 3.57 115.64ZM68.6498 126.77V118.3C66.0598 114.59 62.0698 112.63 58.1498 112.63C50.7298 112.63 47.4398 117.6 47.4398 122.43C47.4398 126.98 50.3798 131.32 55.4898 131.32C58.5698 131.32 62.6298 129.64 67.8098 125.37C63.1898 130.83 57.1698 133.77 52.1298 133.77C45.4798 133.77 41.5598 128.59 41.5598 123.27C41.5598 117.6 46.0398 111.72 56.2598 111.72C60.9498 111.72 65.7098 113.47 68.6498 117.39V115.71C68.6498 106.96 68.7198 98.56 58.8498 98.56C50.4498 98.56 46.5298 104.3 45.6898 107.38C47.1598 101.43 52.7598 97.23 59.0598 97.23C72.4998 97.23 74.5998 105.84 74.5998 115.71V126.56C74.5998 130.41 75.7898 131.81 77.3998 131.81C78.7298 131.81 80.3398 130.83 81.5998 129.57C80.1298 132.09 77.3998 133.42 74.8098 133.42C71.5898 133.42 68.6498 131.39 68.6498 126.77ZM45.6898 107.38C45.6898 107.52 45.6198 107.66 45.6198 107.8C45.6198 107.66 45.6898 107.52 45.6898 107.38ZM84.1493 122.57C83.7993 129.5 90.9393 132.65 97.7993 132.65C104.029 132.65 110.119 129.99 110.119 125.37C110.119 116.2 85.4093 120.4 85.4093 107.17C85.4093 100.38 91.7793 96.74 98.3593 96.74C104.519 96.74 110.749 99.82 112.359 106.54C110.749 100.87 104.869 98.21 99.4793 98.21C94.2293 98.21 89.3993 100.73 89.3993 105.35C89.3993 114.59 114.879 109.9 114.879 123.27C114.879 130.76 107.389 134.26 99.8293 134.26C91.7093 134.26 83.3793 130.2 84.1493 122.57ZM147.4 126.77V118.3C144.81 114.59 140.82 112.63 136.9 112.63C129.48 112.63 126.19 117.6 126.19 122.43C126.19 126.98 129.13 131.32 134.24 131.32C137.32 131.32 141.38 129.64 146.56 125.37C141.94 130.83 135.92 133.77 130.88 133.77C124.23 133.77 120.31 128.59 120.31 123.27C120.31 117.6 124.79 111.72 135.01 111.72C139.7 111.72 144.46 113.47 147.4 117.39V115.71C147.4 106.96 147.47 98.56 137.6 98.56C129.2 98.56 125.28 104.3 124.44 107.38C125.91 101.43 131.51 97.23 137.81 97.23C151.25 97.23 153.35 105.84 153.35 115.71V126.56C153.35 130.41 154.54 131.81 156.15 131.81C157.48 131.81 159.09 130.83 160.35 129.57C158.88 132.09 156.15 133.42 153.56 133.42C150.34 133.42 147.4 131.39 147.4 126.77ZM124.44 107.38C124.44 107.52 124.37 107.66 124.37 107.8C124.37 107.66 124.44 107.52 124.44 107.38ZM199.8 98.28C193.15 98.28 190.14 105.07 190.14 112.63C190.14 121.94 194.76 132.3 202.81 132.3C207.22 132.3 210.16 130.69 211.77 127.75C210.16 131.81 206.31 134.05 200.36 134.05C188.53 134.05 183.56 124.81 183.56 115.64C183.56 106.4 188.6 97.23 200.36 97.23C206.38 97.23 210.3 99.33 212.68 102.41V80.5H218.7V133H212.68V113.33C211.35 105.56 206.8 98.28 199.8 98.28ZM243.292 97.44C250.782 97.44 255.402 101.5 255.402 106.33C255.402 111.65 249.802 117.95 236.432 120.89C246.022 117.04 249.522 111.44 249.522 106.82C249.522 102.27 246.092 98.7 241.752 98.7C235.242 98.7 232.372 104.23 232.372 110.74C232.372 120.19 238.392 131.81 247.842 131.81C256.452 131.81 261.492 122.78 261.842 120.12C261.142 126.84 254.002 134.05 244.832 134.05C232.372 134.05 226.422 125.09 226.422 115.64C226.422 103.18 234.962 97.44 243.292 97.44ZM264.481 122.57C264.131 129.5 271.271 132.65 278.131 132.65C284.361 132.65 290.451 129.99 290.451 125.37C290.451 116.2 265.741 120.4 265.741 107.17C265.741 100.38 272.111 96.74 278.691 96.74C284.851 96.74 291.081 99.82 292.691 106.54C291.081 100.87 285.201 98.21 279.811 98.21C274.561 98.21 269.731 100.73 269.731 105.35C269.731 114.59 295.211 109.9 295.211 123.27C295.211 130.76 287.721 134.26 280.161 134.26C272.041 134.26 263.711 130.2 264.481 122.57ZM317.652 98.28C311.002 98.28 307.992 105.07 307.992 112.63C307.992 121.94 312.612 132.3 320.662 132.3C325.072 132.3 328.012 130.69 329.622 127.75C328.012 131.81 324.162 134.05 318.212 134.05C306.382 134.05 301.412 124.81 301.412 115.64C301.412 106.4 306.452 97.23 318.212 97.23C324.232 97.23 328.152 99.33 330.532 102.41V80.5H336.552V133H330.532V113.33C329.202 105.56 324.652 98.28 317.652 98.28ZM361.143 97.44C368.633 97.44 373.253 101.5 373.253 106.33C373.253 111.65 367.653 117.95 354.283 120.89C363.873 117.04 367.373 111.44 367.373 106.82C367.373 102.27 363.943 98.7 359.603 98.7C353.093 98.7 350.223 104.23 350.223 110.74C350.223 120.19 356.243 131.81 365.693 131.81C374.303 131.81 379.343 122.78 379.693 120.12C378.993 126.84 371.853 134.05 362.683 134.05C350.223 134.05 344.273 125.09 344.273 115.64C344.273 103.18 352.813 97.44 361.143 97.44ZM20.44 174.44C27.93 174.44 32.55 178.5 32.55 183.33C32.55 188.65 26.95 194.95 13.58 197.89C23.17 194.04 26.67 188.44 26.67 183.82C26.67 179.27 23.24 175.7 18.9 175.7C12.39 175.7 9.52 181.23 9.52 187.74C9.52 197.19 15.54 208.81 24.99 208.81C33.6 208.81 38.64 199.78 38.99 197.12C38.29 203.84 31.15 211.05 21.98 211.05C9.52 211.05 3.57 202.09 3.57 192.64C3.57 180.18 12.11 174.44 20.44 174.44ZM44.4998 210V157.5H50.5198V210H44.4998ZM100.302 174.23C112.202 174.23 117.172 183.47 117.172 192.64C117.172 201.88 112.132 211.05 100.302 211.05C94.1423 211.05 90.2223 209.02 87.9123 206.01V227.5H81.8923V175H87.9123V194.18C88.2623 202.79 92.8823 210 100.932 210C107.582 210 110.592 203.21 110.592 195.65C110.592 186.34 105.972 175.91 97.9223 175.91C94.3523 175.91 90.5723 178.92 88.8923 181.58C90.7823 177.24 95.4723 174.23 100.302 174.23ZM133.184 182.56C135.284 177.31 140.114 173.25 144.664 173.25C148.024 173.25 149.634 175.07 149.634 176.89C149.634 178.71 148.094 180.46 145.084 180.46C145.154 177.31 143.754 175.91 141.794 175.91C139.204 175.91 135.704 178.29 133.184 182.56ZM126.394 210V175H132.414V210H126.394ZM156.826 171.71C158.576 170.8 159.276 169.61 159.276 168.7C159.276 167.23 157.596 166.18 155.566 166.74C155.286 163.73 157.316 162.33 159.346 162.33C161.586 162.33 162.986 163.87 162.986 165.76C162.986 167.93 161.166 170.52 156.826 171.71ZM156.336 175H162.356V210H156.336V175ZM180.904 178.57C182.794 176.19 185.034 174.3 190.564 174.3C204.354 174.3 204.844 185.5 204.844 195.16C204.844 195.86 204.844 196.63 204.844 197.33V210H198.824V196.77C198.824 195.65 198.824 194.39 198.824 193.06C198.824 185.64 198.264 175.84 188.814 175.84C184.194 175.84 182.934 176.89 180.904 178.57ZM203.164 179.41C203.724 177.73 206.384 174.3 213.944 174.3C228.714 174.3 228.224 187.25 228.224 197.33V203.56C228.224 207.41 229.484 208.81 231.024 208.81C232.354 208.81 233.964 207.83 235.224 206.57C233.754 209.09 230.954 210.42 228.364 210.42C225.144 210.42 222.204 208.39 222.204 203.77V196.77C222.204 195.58 222.204 194.25 222.204 192.85C222.204 185.43 221.574 175.77 212.194 175.77C206.174 175.77 204.424 177.8 203.164 179.41ZM173.904 210V175H179.924V210H173.904ZM254.708 174.44C262.198 174.44 266.818 178.5 266.818 183.33C266.818 188.65 261.218 194.95 247.848 197.89C257.438 194.04 260.938 188.44 260.938 183.82C260.938 179.27 257.508 175.7 253.168 175.7C246.658 175.7 243.788 181.23 243.788 187.74C243.788 197.19 249.808 208.81 259.258 208.81C267.868 208.81 272.908 199.78 273.258 197.12C272.558 203.84 265.418 211.05 256.248 211.05C243.788 211.05 237.838 202.09 237.838 192.64C237.838 180.18 246.378 174.44 254.708 174.44ZM285.557 182.56C287.657 177.31 292.487 173.25 297.037 173.25C300.397 173.25 302.007 175.07 302.007 176.89C302.007 178.71 300.467 180.46 297.457 180.46C297.527 177.31 296.127 175.91 294.167 175.91C291.577 175.91 288.077 178.29 285.557 182.56ZM278.767 210V175H284.787V210H278.767ZM342.74 175.28C336.09 175.28 333.08 182.07 333.08 189.63C333.08 198.94 337.7 209.3 345.75 209.3C350.16 209.3 353.1 207.69 354.71 204.75C353.1 208.81 349.25 211.05 343.3 211.05C331.47 211.05 326.5 201.81 326.5 192.64C326.5 183.4 331.54 174.23 343.3 174.23C349.32 174.23 353.24 176.33 355.62 179.41V157.5H361.64V210H355.62V190.33C354.29 182.56 349.74 175.28 342.74 175.28ZM379.405 210H373.245V172.48H379.405V210ZM386.685 157.08C386.265 157.733 385.658 158.527 384.865 159.46C384.072 160.393 383.185 161.373 382.205 162.4C381.272 163.38 380.315 164.337 379.335 165.27C378.402 166.157 377.515 166.927 376.675 167.58H372.615V166.74C373.315 165.853 374.062 164.803 374.855 163.59C375.695 162.377 376.512 161.14 377.305 159.88C378.098 158.573 378.752 157.407 379.265 156.38H386.685V157.08ZM415.232 203.77V195.3C412.642 191.59 408.652 189.63 404.732 189.63C397.312 189.63 394.022 194.6 394.022 199.43C394.022 203.98 396.962 208.32 402.072 208.32C405.152 208.32 409.212 206.64 414.392 202.37C409.772 207.83 403.752 210.77 398.712 210.77C392.062 210.77 388.142 205.59 388.142 200.27C388.142 194.6 392.622 188.72 402.842 188.72C407.532 188.72 412.292 190.47 415.232 194.39V192.71C415.232 183.96 415.302 175.56 405.432 175.56C397.032 175.56 393.112 181.3 392.272 184.38C393.742 178.43 399.342 174.23 405.642 174.23C419.082 174.23 421.182 182.84 421.182 192.71V203.56C421.182 207.41 422.372 208.81 423.982 208.81C425.312 208.81 426.922 207.83 428.182 206.57C426.712 209.09 423.982 210.42 421.392 210.42C418.172 210.42 415.232 208.39 415.232 203.77ZM392.272 184.38C392.272 184.52 392.202 184.66 392.202 184.8C392.202 184.66 392.272 184.52 392.272 184.38Z" fill="#505050"/>
</svg>
