<svg width="474" height="65" viewBox="0 0 474 65" fill="none" xmlns="http://www.w3.org/2000/svg">
<path d="M74.8428 37.38V7H81.2828V37.38C81.2828 49.35 88.7028 55.16 96.2628 55.16C103.963 55.16 111.803 49.07 111.803 37.38V20.65C111.803 12.46 108.863 7.98 107.603 7.56C107.323 7.49 107.323 7 107.323 7H112.923V37.38C112.923 50.68 102.913 57.89 93.1128 57.89C83.8728 57.89 74.8428 51.38 74.8428 37.38ZM124.273 56V3.5H130.293L130.433 42.21C131.413 49.91 135.893 56 143.313 56C149.963 56 152.973 49.21 152.973 41.65C152.973 32.34 148.353 21.91 140.303 21.91C136.733 21.91 132.953 24.92 131.273 27.58C133.163 23.24 137.853 20.23 142.683 20.23C154.583 20.23 159.553 29.47 159.553 38.64C159.553 47.88 154.513 57.05 142.683 57.05C135.753 57.05 131.623 54.46 129.383 50.75C126.933 50.47 125.113 53.13 124.273 56ZM169.265 17.71C171.015 16.8 171.715 15.61 171.715 14.7C171.715 13.23 170.035 12.18 168.005 12.74C167.725 9.73 169.755 8.33 171.785 8.33C174.025 8.33 175.425 9.87 175.425 11.76C175.425 13.93 173.605 16.52 169.265 17.71ZM168.775 21H174.795V56H168.775V21ZM184.174 38.64C184.174 27.09 192.854 20.3 201.534 20.3C209.514 20.3 212.944 24.01 212.944 27.02C212.944 29.33 210.984 31.22 207.624 30.94C208.044 30.38 208.254 29.54 208.254 28.56C208.254 25.69 206.154 21.7 199.504 21.7C192.854 21.7 189.844 27.44 189.844 34.09C189.844 43.47 195.864 54.81 206.224 54.81C213.434 54.81 219.244 47.11 219.594 43.05C219.314 49.84 211.544 57.05 202.584 57.05C190.124 57.05 184.174 48.09 184.174 38.64ZM249.253 49.77V41.3C246.663 37.59 242.673 35.63 238.753 35.63C231.333 35.63 228.043 40.6 228.043 45.43C228.043 49.98 230.983 54.32 236.093 54.32C239.173 54.32 243.233 52.64 248.413 48.37C243.793 53.83 237.773 56.77 232.733 56.77C226.083 56.77 222.163 51.59 222.163 46.27C222.163 40.6 226.643 34.72 236.863 34.72C241.553 34.72 246.313 36.47 249.253 40.39V38.71C249.253 29.96 249.323 21.56 239.453 21.56C231.053 21.56 227.133 27.3 226.293 30.38C227.763 24.43 233.363 20.23 239.663 20.23C253.103 20.23 255.203 28.84 255.203 38.71V49.56C255.203 53.41 256.393 54.81 258.003 54.81C259.333 54.81 260.943 53.83 262.203 52.57C260.733 55.09 258.003 56.42 255.413 56.42C252.193 56.42 249.253 54.39 249.253 49.77ZM226.293 30.38C226.293 30.52 226.223 30.66 226.223 30.8C226.223 30.66 226.293 30.52 226.293 30.38ZM265.453 38.64C265.453 27.09 274.133 20.3 282.813 20.3C290.793 20.3 294.223 24.01 294.223 27.02C294.223 29.33 292.263 31.22 288.903 30.94C289.323 30.38 289.533 29.54 289.533 28.56C289.533 25.69 287.433 21.7 280.783 21.7C274.133 21.7 271.123 27.44 271.123 34.09C271.123 43.47 277.143 54.81 287.503 54.81C294.713 54.81 300.523 47.11 300.873 43.05C300.593 49.84 292.823 57.05 283.863 57.05C271.403 57.05 265.453 48.09 265.453 38.64ZM306.873 17.71C308.623 16.8 309.323 15.61 309.323 14.7C309.323 13.23 307.643 12.18 305.613 12.74C305.333 9.73 307.363 8.33 309.393 8.33C311.633 8.33 313.033 9.87 313.033 11.76C313.033 13.93 311.213 16.52 306.873 17.71ZM306.383 21H312.403V56H306.383V21ZM356.781 37.17C356.781 40.2967 356.361 43.0733 355.521 45.5C354.728 47.88 353.561 49.91 352.021 51.59C350.528 53.27 348.684 54.5533 346.491 55.44C344.344 56.28 341.941 56.7 339.281 56.7C336.808 56.7 334.521 56.28 332.421 55.44C330.321 54.5533 328.501 53.27 326.961 51.59C325.421 49.91 324.208 47.88 323.321 45.5C322.481 43.0733 322.061 40.2967 322.061 37.17C322.061 33.0167 322.761 29.5167 324.161 26.67C325.561 23.7767 327.568 21.5833 330.181 20.09C332.794 18.55 335.898 17.78 339.491 17.78C342.898 17.78 345.884 18.55 348.451 20.09C351.064 21.5833 353.094 23.7767 354.541 26.67C356.034 29.5167 356.781 33.0167 356.781 37.17ZM328.431 37.17C328.431 40.11 328.804 42.6767 329.551 44.87C330.344 47.0167 331.558 48.6733 333.191 49.84C334.824 51.0067 336.901 51.59 339.421 51.59C341.941 51.59 344.018 51.0067 345.651 49.84C347.284 48.6733 348.474 47.0167 349.221 44.87C350.014 42.6767 350.411 40.11 350.411 37.17C350.411 34.1833 350.014 31.64 349.221 29.54C348.428 27.44 347.214 25.83 345.581 24.71C343.994 23.5433 341.918 22.96 339.351 22.96C335.524 22.96 332.748 24.22 331.021 26.74C329.294 29.26 328.431 32.7367 328.431 37.17ZM349.781 3.08C349.361 3.73333 348.754 4.52666 347.961 5.46C347.168 6.39333 346.281 7.37333 345.301 8.4C344.368 9.38 343.411 10.3367 342.431 11.27C341.498 12.1567 340.611 12.9267 339.771 13.58H335.711V12.74C336.411 11.8533 337.158 10.8033 337.951 9.59C338.791 8.37667 339.608 7.14 340.401 5.88C341.194 4.57333 341.848 3.40667 342.361 2.38H349.781V3.08ZM392.654 49.77V42.77C392.584 35.49 393.424 21.49 382.224 21.49C376.134 21.49 373.964 23.38 372.984 24.5C375.014 21.49 379.354 20.3 382.854 20.3C399.234 20.3 398.674 33.25 398.674 43.33V49.56C398.674 53.41 399.864 54.81 401.474 54.81C402.804 54.81 404.414 53.83 405.674 52.57C404.204 55.09 401.404 56.42 398.814 56.42C395.594 56.42 392.654 54.39 392.654 49.77ZM366.334 56V21H372.354V56H366.334Z" fill="#505050"/>
</svg>
