<svg width="35" height="35" viewBox="0 0 35 35" fill="none" xmlns="http://www.w3.org/2000/svg">
<path d="M28.3548 25.1948H21.6576V2.37569H22.6563V1.91931H27.3561V2.36227H28.3548V25.1948ZM29.9262 27.3291H20.1008V26.2149H29.9262V27.3291ZM14.2848 25.1948H7.58759V2.37569H8.58629V1.91931H13.2714V2.36227H14.2701V25.1948H14.2848ZM15.8416 27.3291H6.0161V26.2149H15.8416V27.3291ZM30.1172 0.885742H28.9275H21.0995H14.8429H7.0148H5.82517C3.15217 0.885742 0.978516 3.04685 0.978516 5.69118V35.007H2.1094V5.69118C2.1094 3.74484 3.57808 2.13408 5.458 1.93274V2.36227H6.4567V25.1814H5.458C5.14957 25.1814 4.8999 25.4096 4.8999 25.6915V27.8391C4.8999 28.121 5.14957 28.3492 5.458 28.3492H16.4144C16.7228 28.3492 16.9725 28.121 16.9725 27.8391V25.6915C16.9725 25.4096 16.7228 25.1814 16.4144 25.1814H15.4157V2.36227H16.4144V1.91931H19.5427V2.36227H20.5414V25.1814H19.5427C19.2342 25.1814 18.9846 25.4096 18.9846 25.6915V27.8391C18.9846 28.121 19.2342 28.3492 19.5427 28.3492H30.499C30.8075 28.3492 31.0571 28.121 31.0571 27.8391V25.6915C31.0571 25.4096 30.8075 25.1814 30.499 25.1814H29.5003V2.36227H30.499V1.93274C32.3789 2.12066 33.8476 3.73142 33.8476 5.69118V35.007H34.9785V5.69118C34.9638 3.03342 32.7902 0.885742 30.1172 0.885742Z" fill="#CFCFCF"/>
</svg>
